<svg width="30" height="30" viewBox="0 0 30 30" fill="none" xmlns="http://www.w3.org/2000/svg">
<path d="M7.84333 22.6636L7.67262 22.8295L7.67252 22.8296C8.63473 23.8232 9.88499 24.3245 11.3637 24.3221C12.8663 24.3247 14.124 23.8239 15.0754 22.8284C16.0288 21.8368 16.5053 20.5386 16.5034 18.9877C16.5053 17.4374 16.0288 16.1397 15.0754 15.1471C14.124 14.1521 12.8663 13.6515 11.3637 13.6539C9.86041 13.6515 8.60275 14.1521 7.65187 15.1471C6.69783 16.1397 6.2219 17.4374 6.22385 18.9877C6.22171 20.5393 6.70488 21.8383 7.67262 22.8295C7.67265 22.8295 7.67268 22.8296 7.67271 22.8296H7.67252L7.67262 22.8295L7.84333 22.6636L8.01395 22.4974C7.13926 21.5967 6.70222 20.4448 6.70017 18.9877C6.70212 17.5307 7.13369 16.3783 7.9957 15.4767C8.85988 14.5789 9.96173 14.1328 11.3637 14.1302C12.765 14.1328 13.8668 14.5789 14.7315 15.4767C15.5929 16.3783 16.0252 17.5307 16.0271 18.9877C16.0252 20.4452 15.5929 21.5984 14.7315 22.4988C13.8668 23.3974 12.765 23.8432 11.3637 23.8458C9.98881 23.8432 8.89225 23.3981 8.01414 22.4976L8.01395 22.4974L7.84333 22.6636ZM9.10752 28.6736L9.20631 28.4568C8.04529 27.9268 7.07965 27.1744 6.29866 26.1918L5.89312 25.6812L5.80278 28.7858H0.476317V0.476253H6.34098V11.8861L6.75254 11.4491C7.56042 10.591 8.50422 9.92991 9.59053 9.46218C10.6745 8.99588 11.8462 8.76201 13.1142 8.76177C14.8908 8.76249 16.4634 9.19235 17.8516 10.049C19.2392 10.9082 20.3221 12.1085 21.1094 13.6684C21.8944 15.2271 22.2897 16.9963 22.29 18.9877C22.2897 20.9792 21.8944 22.7484 21.1092 24.3071C20.3221 25.8672 19.2384 27.0749 17.8502 27.9468C16.4622 28.8167 14.8904 29.252 13.1142 29.2525C11.665 29.2525 10.3648 28.9863 9.2065 28.4568H9.20631L9.10752 28.6736L9.00854 28.8901C10.235 29.4509 11.6069 29.7291 13.1142 29.7288C14.9683 29.7296 16.6382 29.2699 18.1034 28.3504C19.5664 27.4326 20.7136 26.1509 21.5345 24.5214C22.3567 22.8901 22.7665 21.0418 22.7663 18.9877C22.7665 16.9337 22.3567 15.0854 21.5348 13.4541C20.7136 11.8242 19.5659 10.5491 18.1022 9.64388H18.1019C16.637 8.73843 14.9675 8.285 13.1142 8.28547C11.7876 8.28547 10.5479 8.53148 9.40224 9.02469C8.25777 9.51695 7.25667 10.2183 6.40573 11.1226L6.57913 11.2857H6.81729V-4.67454e-05H0V29.2621H6.26543L6.35029 26.3469L6.1122 26.34L5.92567 26.4881C6.7519 27.5283 7.78277 28.3314 9.00864 28.8904L9.00854 28.8901L9.10752 28.6736Z" fill="black"/>
<path fill-rule="evenodd" clip-rule="evenodd" d="M9.20631 28.4568C8.04529 27.9268 7.07965 27.1744 6.29866 26.1918L5.89312 25.6812L5.80278 28.7858H0.476317V0.476253H6.34098V11.8861L6.75254 11.4491C7.56042 10.591 8.50422 9.92991 9.59053 9.46218C10.6745 8.99588 11.8462 8.76201 13.1142 8.76177C14.8908 8.76249 16.4634 9.19235 17.8516 10.049C19.2392 10.9082 20.3221 12.1085 21.1094 13.6684C21.8944 15.2271 22.2897 16.9963 22.29 18.9877C22.2897 20.9792 21.8944 22.7484 21.1092 24.3071C20.3221 25.8672 19.2384 27.0749 17.8502 27.9468C16.4622 28.8167 14.8904 29.252 13.1142 29.2525C11.665 29.2525 10.3648 28.9863 9.2065 28.4568H9.20631ZM7.67262 22.8295L7.67252 22.8296C8.63473 23.8232 9.88499 24.3245 11.3637 24.3221C12.8663 24.3247 14.124 23.8239 15.0754 22.8284C16.0288 21.8368 16.5053 20.5386 16.5034 18.9877C16.5053 17.4374 16.0288 16.1397 15.0754 15.1471C14.124 14.1521 12.8663 13.6515 11.3637 13.6539C9.86041 13.6515 8.60275 14.1521 7.65187 15.1471C6.69783 16.1397 6.2219 17.4374 6.22385 18.9877C6.22171 20.5393 6.70488 21.8383 7.67262 22.8295Z" fill="black"/>
<path d="M23.5575 28.5387L23.7192 28.3636C23.0821 27.7716 22.7675 27.0157 22.7647 26.0292C22.7675 25.0716 23.0812 24.3203 23.7209 23.7132C24.3644 23.1086 25.1555 22.8078 26.1446 22.8059C27.1325 22.8078 27.9237 23.1086 28.5674 23.7132C29.2069 24.3203 29.521 25.0716 29.5238 26.0292C29.521 27.0154 29.2059 27.7716 28.5693 28.3636C27.926 28.9561 27.1334 29.2514 26.1446 29.2533C25.1543 29.2514 24.362 28.9561 23.7194 28.3638L23.5575 28.5387L23.3958 28.7132C24.126 29.3912 25.0591 29.7313 26.1446 29.7296C27.2289 29.7313 28.1618 29.3912 28.8925 28.7135C29.6298 28.0349 30.0028 27.1185 29.9999 26.0292C30.0028 24.9649 29.6289 24.0566 28.8944 23.3667C28.1642 22.6756 27.2301 22.3274 26.1446 22.3296C25.0579 22.3274 24.1238 22.6756 23.3941 23.3667C22.6589 24.0566 22.2857 24.9649 22.2883 26.0292C22.2855 27.1185 22.658 28.0349 23.396 28.7135L23.5575 28.5387Z" fill="black"/>
<path d="M23.5575 28.5387L23.7192 28.3636C23.0821 27.7716 22.7675 27.0157 22.7647 26.0292C22.7675 25.0716 23.0812 24.3203 23.7209 23.7132C24.3644 23.1086 25.1555 22.8078 26.1446 22.8059C27.1325 22.8078 27.9237 23.1086 28.5674 23.7132C29.2069 24.3203 29.521 25.0716 29.5238 26.0292C29.521 27.0154 29.2059 27.7716 28.5693 28.3636C27.926 28.9561 27.1334 29.2514 26.1446 29.2533C25.1543 29.2514 24.362 28.9561 23.7194 28.3638L23.5575 28.5387Z" fill="black"/>
</svg>
