<svg width="80" height="102" viewBox="0 0 80 102" fill="none" xmlns="http://www.w3.org/2000/svg">
<path d="M55.13 52.16V57.28C55.13 57.8133 55.0767 58.2933 54.97 58.72C54.97 59.1467 54.97 59.6267 54.97 60.16C54.97 61.0133 54.97 61.92 54.97 62.88C55.0767 63.7333 55.1833 64.5867 55.29 65.44C55.3966 66.1867 55.29 66.9867 54.97 67.84C54.8633 68.2667 54.5966 68.48 54.17 68.48H53.69C53.2633 68.3733 52.89 68.2667 52.57 68.16C52.25 67.9467 51.8767 67.7333 51.45 67.52C49.21 66.24 46.81 65.12 44.25 64.16L42.49 63.68C41.4233 63.4667 40.41 63.2 39.45 62.88C38.49 62.4533 37.53 62.08 36.57 61.76C35.93 61.5467 35.45 61.44 35.13 61.44C34.9166 61.44 34.7033 61.4933 34.49 61.6C34.3833 61.6 34.2233 61.6 34.01 61.6C33.1567 61.8133 32.41 62.4 31.77 63.36C31.13 64.2133 30.9166 65.12 31.13 66.08C31.3433 66.9333 31.45 67.84 31.45 68.8C31.45 69.6533 31.45 70.5067 31.45 71.36V80.48C31.45 80.9067 31.3966 81.3333 31.29 81.76C31.29 82.1867 31.29 82.6667 31.29 83.2C31.3966 84.0533 31.5033 84.96 31.61 85.92C31.7166 86.7733 31.8767 87.6267 32.09 88.48C32.9433 91.04 33.5299 93.3333 33.85 95.36C34.0633 96.4267 34.2766 97.2267 34.49 97.76C34.7033 98.1867 34.9166 98.72 35.13 99.36C35.2366 100 34.9166 100.48 34.17 100.8L32.89 101.12C32.1433 101.12 31.45 101.173 30.81 101.28C30.17 101.28 29.53 101.28 28.89 101.28C27.7167 101.28 26.81 101.333 26.17 101.44C24.89 101.653 23.8233 101.76 22.9699 101.76C22.4366 101.76 21.9033 101.707 21.37 101.6C20.8366 101.6 20.3033 101.547 19.77 101.44H18.49C17.53 101.44 16.57 101.387 15.61 101.28C14.7566 101.28 13.85 101.227 12.89 101.12H12.25C11.7166 101.12 11.2366 101.173 10.81 101.28C10.3833 101.28 9.90331 101.28 9.36997 101.28H3.76999C3.34333 101.28 2.97 101.28 2.65 101.28C2.33 101.173 2.00998 101.12 1.68998 101.12C0.303311 100.8 -0.229998 100 0.0900022 98.72C0.516669 97.44 0.889997 96.48 1.21 95.84C2.27666 93.4933 3.02332 91.1467 3.44999 88.8C3.98332 86.4533 4.24998 84 4.24998 81.44V74.08C4.24998 73.0133 4.30328 72 4.40995 71.04C4.51662 69.9733 4.56998 68.9067 4.56998 67.84C4.67665 66.9867 4.67665 66.08 4.56998 65.12C4.56998 64.16 4.62329 63.2533 4.72996 62.4C4.72996 61.8667 4.72996 61.3333 4.72996 60.8C4.72996 60.2667 4.62328 59.7333 4.40995 59.2C4.19662 58.6666 4.09 58.1333 4.09 57.6C4.09 56.96 4.09 56.32 4.09 55.68V51.84C3.98334 50.7733 3.98334 49.76 4.09 48.8C4.30334 47.84 4.46332 46.88 4.56998 45.92C4.56998 45.3867 4.56998 44.8533 4.56998 44.32C4.56998 43.7867 4.51662 43.2533 4.40995 42.72C4.19662 41.5467 4.09 40.4267 4.09 39.36C4.09 38.2933 4.19662 37.2267 4.40995 36.16V35.36C4.40995 33.9733 4.46332 32.64 4.56998 31.36C4.78332 30.08 4.78332 28.7467 4.56998 27.36C4.35665 25.5466 4.19667 23.7333 4.09 21.92C4.09 20.1067 3.92996 18.2933 3.60996 16.48C3.39663 15.84 3.28995 15.2 3.28995 14.56C3.39662 13.92 3.39662 13.3333 3.28995 12.8C3.28995 11.6267 3.12997 10.6133 2.80997 9.75998C2.59664 8.79998 2.22331 7.84001 1.68998 6.88C1.04998 5.6 0.676649 4.53332 0.569983 3.67999C0.249982 2.61333 0.623311 1.81333 1.68998 1.28C2.32998 0.959997 2.96996 0.799988 3.60996 0.799988C4.24996 0.693322 4.89 0.586652 5.53 0.47998C6.06334 0.373315 6.75663 0.319977 7.60996 0.319977H9.68998C10.5433 0.213312 11.3966 0.160004 12.25 0.160004C13.21 0.160004 14.1167 0.160004 14.97 0.160004C16.9967 0.160004 18.7033 0.319982 20.09 0.639984H21.53H24.4099C24.8366 0.533312 25.2633 0.47998 25.69 0.47998C26.1166 0.47998 26.5433 0.47998 26.97 0.47998C27.61 0.47998 28.1966 0.47998 28.73 0.47998C29.37 0.47998 30.01 0.533312 30.65 0.639984H39.77C40.41 0.639984 40.9967 0.639984 41.53 0.639984C42.17 0.533312 42.7566 0.426642 43.29 0.319977C43.7166 0.213312 44.09 0.160004 44.41 0.160004C44.7299 0.0533384 45.1033 0 45.53 0C46.17 0 46.9167 0.106646 47.77 0.319977H48.57C50.0633 0.319977 51.45 0.373315 52.73 0.47998C54.1166 0.586652 55.5033 0.693322 56.89 0.799988L60.89 1.12C62.0633 1.22667 63.29 1.43998 64.57 1.75998C65.9566 1.97332 67.1833 2.40001 68.25 3.04001C69.4233 3.57334 70.3833 4.32 71.13 5.28C71.8766 6.24 72.25 7.41332 72.25 8.79999C72.3566 9.75999 72.4633 10.72 72.57 11.68C72.6767 12.64 72.8366 13.6 73.05 14.56L73.37 17.44C73.37 18.08 73.37 18.72 73.37 19.36C73.4766 20 73.5833 20.64 73.69 21.28C73.7966 22.88 73.69 24.64 73.37 26.56V28C72.73 27.8933 72.3033 27.7333 72.09 27.52C71.8767 27.3067 71.6633 27.0933 71.45 26.88C70.7033 25.8133 69.9567 25.0133 69.21 24.48C68.3567 23.84 67.5566 23.1467 66.81 22.4C66.17 21.6533 65.4766 20.9067 64.73 20.16C62.3833 17.8133 59.3967 16.2133 55.77 15.36C52.1433 14.4 48.6766 13.92 45.37 13.92C44.6233 13.92 43.8766 13.92 43.13 13.92C42.49 13.8133 41.7966 13.7067 41.05 13.6C40.41 13.4933 39.45 13.44 38.17 13.44C37.6366 13.44 37.05 13.44 36.41 13.44C35.8767 13.44 35.3433 13.5466 34.81 13.76C33.1033 14.08 32.09 15.0933 31.77 16.8C31.5567 17.9733 31.45 19.0933 31.45 20.16C31.45 21.2267 31.45 22.3467 31.45 23.52C31.45 24.9067 31.3966 26.24 31.29 27.52C31.29 28.8 31.2366 30.08 31.13 31.36V39.84C31.13 41.76 31.5033 43.4667 32.25 44.96C33.1033 46.3467 34.65 47.0933 36.89 47.2C39.13 47.2 41.1566 46.6667 42.9699 45.6C43.7166 45.1733 44.41 44.8533 45.05 44.64C45.7966 44.32 46.5433 44 47.29 43.68L50.81 41.76C51.2366 41.5467 51.61 41.3867 51.93 41.28C52.25 41.0667 52.6233 40.9067 53.05 40.8C53.2633 40.6933 53.4766 40.64 53.69 40.64C54.2233 40.64 54.5433 40.96 54.65 41.6L54.97 44.16C55.1833 45.5467 55.2366 46.88 55.13 48.16C55.13 49.44 55.13 50.7733 55.13 52.16Z" fill="#FFAD33"/>
<path fill-rule="evenodd" clip-rule="evenodd" d="M72.275 26.9125C72.1024 28.4513 71.7012 30.066 71.1904 31.2769C70.8117 32.1748 70.5154 32.7106 69.7134 33.9484C69.1285 34.8511 68.7554 35.4926 68.5474 35.9531C68.127 36.8839 67.8939 37.7559 67.8091 38.7144C67.7709 39.147 67.8431 40.2503 67.9365 40.6611C68.1728 41.6999 68.5739 42.5868 69.1486 43.3412C69.4642 43.7555 69.6898 43.9973 70.0607 44.319C70.9795 45.1157 72.0279 45.5678 73.2974 45.7146C73.5101 45.7392 73.6966 45.7368 74.201 45.7029C74.7806 45.6641 74.8689 45.6518 75.2028 45.5643C77.4875 44.9652 79.2199 43.0225 79.6892 40.5334C79.9024 39.4027 79.8506 37.9868 79.5539 36.8316C78.7993 33.8945 76.2776 30.2974 72.7286 27.0957C72.498 26.8876 72.3064 26.7176 72.303 26.7178C72.2996 26.718 72.2869 26.8056 72.275 26.9125ZM70.4542 35.3917C70.1072 36.5013 69.9077 37.6136 69.869 38.6532C69.8542 39.0514 69.953 40.2027 70.0308 40.5389C70.2804 41.6173 70.6851 42.4789 71.3249 43.2942C71.5412 43.5699 71.5427 43.5729 71.422 43.4944C71.0292 43.2391 70.381 42.6891 70.0957 42.369C69.2407 41.4095 68.8419 40.1039 69.0182 38.8406C69.1609 37.8184 69.6131 36.6466 70.3152 35.4804C70.4203 35.3058 70.5097 35.1659 70.5139 35.1696C70.5181 35.1733 70.4912 35.2732 70.4542 35.3917Z" fill="#FFAD33"/>
</svg>
