<svg width="278" height="356" viewBox="0 0 278 356" fill="none" xmlns="http://www.w3.org/2000/svg">
<path d="M88.982 0H94.978C96.0773 6.64332 95.1679 13.3367 95.4977 20.0001C96.0573 30.1705 96.1472 40.3509 95.6975 50.5313C95.1779 51.7237 96.3871 111.594 94.978 112.225C96.0173 113.748 93.2591 112.626 94.978 112.225C94.1985 110.371 89.4739 120.554 89.4839 118.5C88.9839 105.5 87.8327 18.2466 87.9926 4.27858C88.0126 2.78558 87.9027 1.25251 88.982 0.0100201V0Z" fill="#191F20"/>
<path d="M98.9839 80H102.624H104.624C103.604 81.53 103.644 82.75 104.474 84.67C106.294 88.89 107.824 93.21 110.594 96.95C110.834 97.27 110.624 97.91 110.624 98.41C113.204 99.32 114.464 102.1 117.454 102.81C117.654 102.74 117.814 101.85 118.624 102C119.314 102.53 119.604 103.25 119.664 104.09C119.584 105.55 118.964 106.68 117.634 107.38C112.194 107.18 109.284 103.12 106.304 99.52C102.774 95.26 101.524 89.82 99.8639 84.65C99.4639 83.4 97.3439 81.03 98.4839 80H98.9839Z" fill="#E4E6E2"/>
<path d="M16.6239 262V256C16.5239 252.77 14.3639 249.74 15.6939 246.38C17.1839 244.3 19.3439 244.33 21.5339 244.64C33.5339 246.33 45.5539 245.96 57.5839 245.1C60.5239 244.89 62.8739 245.46 64.1339 248.41C65.2339 256.67 64.9139 264.95 64.3139 273.21C64.1439 275.5 63.7939 277.81 63.7239 280.12C63.4839 287.37 61.0639 290.29 53.9539 291.6C52.6339 291.84 51.4039 292.27 50.1539 292.67C48.3439 293.11 46.4939 293.09 44.6539 293.12C42.8539 292.96 41.1039 292.43 39.3039 292.29C36.6439 290.35 33.2939 293.03 30.6439 291C28.8739 291.17 27.4839 289.49 25.6439 290C25.0139 290.72 24.0539 291.06 24.0539 291.05C22.8339 292.8 23.5239 294.11 22.6439 295C18.2339 291.98 17.8939 286.96 16.7439 282.45C16.2339 280.44 16.1939 278.24 15.8839 276.13C16.1839 272.6 16.1139 269.1 15.0339 265.68C14.9539 265.21 14.9839 264.75 15.1239 264.3C15.6239 263.53 16.1339 262.77 16.6439 262H16.6239Z" fill="#325D7F"/>
<path d="M118.624 292C116.874 292.28 115.654 290.52 113.624 290.99V289C114.954 285.67 116.294 282.33 117.624 279C117.994 278.7 118.624 278.5 117.984 278.5C117.344 278.5 118.004 277.52 118.624 277C119.244 276.48 119.034 275.54 119.624 275C120.594 274.92 120.814 275.67 120.594 276.26C118.824 280.83 119.944 285.57 119.624 290.23C119.574 290.95 119.994 291.99 118.634 292H118.624Z" fill="#D4D8D6"/>
<path d="M34.6239 229C33.0539 226.16 33.404 223.16 33.974 220.18C34.404 217.92 35.6039 215.84 35.6539 213.41C37.0439 212.4 37.884 210.68 39.634 210C39.984 209.67 40.3939 209.49 40.8739 209.47C45.1639 210.92 45.514 214.7 46.114 218.32C47.314 220.14 48.314 218.36 49.394 218.11C54.084 215.93 58.4739 218.39 63.004 218.9C67.624 219.42 72.054 220.84 76.634 221.58C79.404 222.03 82.754 222.57 83.124 226.54C81.654 230.44 78.474 233 75.764 235.93C74.004 238.39 72.654 241.25 69.594 242.49C65.424 243.68 65.4339 240.35 64.6139 237.92C61.2839 234.04 56.564 234.56 52.204 234.06C48.414 233.62 44.504 233.68 41.774 230.34C40.834 227.68 41.244 224.76 40.254 222.13C40.194 221.86 40.1639 221.56 40.1539 221.26C40.0939 221.33 40.034 221.55 39.984 221.97C39.154 224.28 39.4039 226.78 38.5139 229.04C37.2139 230.48 35.9239 231.01 34.6539 229.02L34.6239 229Z" fill="#101111"/>
<path d="M40.624 210H39.624V205H47.624C49.094 205 50.564 205 52.024 205C52.984 204.46 53.404 203.21 54.624 203C55.114 202.67 55.574 202.72 55.994 203.13C58.894 207.14 63.604 206.83 67.674 207.72C88.374 212.23 109.384 215.19 129.924 220.46C130.884 220.71 131.894 220.73 132.894 220.75C135.754 221.35 138.944 221.27 140.484 224.52C140.574 225.07 140.634 225.62 140.684 226.18C140.954 227.36 140.694 228.39 139.854 229.27C134.874 230.6 130.354 228.72 125.964 226.93C123.484 225.92 121.074 224.8 118.414 224.68C109.104 224.25 100.094 221.68 91.084 219.88C82.664 218.19 74.054 217.99 65.694 215.68C60.944 214.37 55.644 214.65 50.574 213.75C46.834 213.08 43.924 211.29 40.644 210.01L40.624 210Z" fill="#5A3D2F"/>
<path d="M18.6239 307H16.6239C16.1739 306.51 15.6039 306.59 15.0339 306.65C14.1939 306.58 13.6139 306.03 12.9939 305.56C12.5139 305.18 11.9439 304.96 11.4139 304.65C10.0539 303.71 8.59393 302.91 7.26393 301.92C6.91393 301.72 6.56393 301.52 6.21393 301.32C5.87393 301.11 5.55393 300.88 5.25393 300.61C4.99393 300.31 4.80393 299.97 4.68393 299.58L4.63393 298.99C4.39393 297.9 3.72393 297.23 2.63393 296.99C1.58393 291.97 -0.61607 287.14 0.163929 281.82C0.253929 280.88 0.893929 280.4 1.63393 279.99C1.97393 279.66 2.33393 279.36 2.71393 279.08C8.61393 278.57 12.0739 280.97 14.5739 287.06C16.4239 291.58 17.9039 296.4 22.6339 298.99C23.0639 301.43 20.8839 303.5 21.6339 305.99C21.8839 306.21 21.9739 306.43 21.8839 306.66C21.8039 306.88 21.7139 306.99 21.6339 306.99C20.6339 307.69 19.6339 307.7 18.6339 306.99L18.6239 307Z" fill="#523F37"/>
<path d="M34.6239 229C35.4339 228.87 35.6139 229.68 36.1239 229.99C36.6339 229.68 36.8139 228.88 37.6239 229C38.2739 229.11 38.8539 229.41 39.4639 229.61C39.8639 229.7 40.2639 229.82 40.6639 229.95C41.3239 230.06 41.9739 230.04 42.6239 230C44.4039 231.46 46.9439 230.58 48.7439 232C53.2739 231.76 57.7539 232.15 62.5439 233.47C63.3739 234.43 65.3239 234.39 66.6339 235.51C66.6339 236.01 66.6339 236.5 66.6339 237C65.2539 239.54 63.6039 241.66 60.2339 241.08C48.7339 237.94 37.0839 238.83 25.4439 239.94C24.1739 240.06 23.0639 241.03 21.9139 241.7C18.0539 242.34 14.9239 241.41 13.2039 237.55C13.0439 236.35 13.4939 235.48 14.6339 235C16.4339 235.11 17.8339 233.87 19.5239 233.51C20.0639 233.4 20.6239 232.94 21.2939 233C25.6939 233.36 29.8639 231.14 34.1439 232.07C34.9439 230.97 34.5039 229.95 34.6339 229H34.6239Z" fill="#264763"/>
<path d="M22.624 299C21.174 299.04 20.994 301.08 19.044 300.98C17.944 296.66 14.624 293.28 12.994 288.97C12.544 287.79 12.844 286.73 12.564 285.42C11.234 284.24 9.76402 282.92 7.88402 281.25C6.52402 281.03 4.78402 279.62 2.62402 280C3.70402 275.06 7.16402 272.34 11.494 270.41C14.444 270.73 16.414 272.35 17.624 275C17.464 276.78 18.944 278.17 18.674 280.06C18.424 281.84 18.624 283.69 18.624 285.5C19.574 286.45 20.514 287.39 21.624 288.5C21.624 289.96 21.594 291.59 21.634 293.22C21.654 293.94 21.254 294.99 22.624 295V299Z" fill="#72513B"/>
<path d="M186.624 213C186.624 212.51 186.744 211.62 186.604 211.58C184.444 210.93 184.024 208.65 182.564 207.33C180.934 205.87 179.184 204.49 178.234 202.25C177.454 200.42 175.044 199.67 174.384 197.41C174.184 196.73 172.584 196.45 171.624 195.99C171.284 195.59 171.194 195.14 171.294 194.64C175.304 190.77 179.724 187.45 184.724 184.96C187.574 184.87 188.444 187.41 189.914 189.05C191.374 190.68 192.604 192.48 195.444 191.74C197.434 190.6 198.934 188.61 200.594 186.9C201.874 180.27 203.424 175.33 212.964 174.88C219.254 177.53 220.364 188.47 214.304 192.97C208.484 197.29 204.074 202.67 199.984 208.44C198.354 210.73 195.924 211.73 193.624 212.99C192.544 214.62 190.954 214.34 189.774 213.51C188.674 212.74 187.664 213.17 186.624 212.99V213Z" fill="#EAAB64"/>
<path d="M142.624 226C143.454 228.16 145.254 230.01 144.524 232.63L146.734 233.42C146.054 234.86 147.634 236.74 145.624 238.01C140.334 236.06 138.904 233.92 139.624 229.01V226.01C140.294 225.42 140.954 225.42 141.624 226.01H142.624V226Z" fill="#675942"/>
<path d="M127.624 216C127.624 215.53 127.604 215.06 127.624 214.59C127.644 214.15 127.704 213.71 127.764 213.15C128.814 213.36 129.544 214.36 130.624 214V216.41C130.964 218.12 133.464 217.34 133.784 219.48C133.954 220.61 136.214 220.22 137.504 220.8C138.804 221.39 140.184 222.15 141.624 222.52V225C140.954 225.62 140.294 225.62 139.624 225C138.114 222.08 135.434 221.9 132.624 222C132.424 221.98 132.224 221.96 132.014 221.95C131.614 221.84 131.254 221.67 130.914 221.44C130.744 221.33 130.574 221.21 130.394 221.1C130.014 220.9 129.664 220.68 129.314 220.44C128.224 219.16 126.634 218.08 127.624 216.01V216Z" fill="#E4E6E2"/>
<path d="M163.454 224.03C160.254 223.87 160.894 221.54 160.414 220.22C158.044 218.96 159.214 222.21 156.794 221.86C156.034 221.59 156.484 219.77 155.304 218.53C156.054 218.14 156.784 217.76 157.674 217.29L158.904 218.83C160.424 219.41 160.724 217.68 162.104 218.06L163.454 219.26V224.01V224.03Z" fill="#E4E6E2"/>
<path d="M268.624 172C270.264 173.07 269.894 174.59 269.174 175.84C268.734 176.59 268.644 177.24 268.624 178C266.784 177.68 267.414 175.87 267.794 175.5C268.924 174.4 268.514 173.19 268.624 172Z" fill="#E4E6E2"/>
<path d="M275.624 182C275.774 181.24 275.124 180.09 276.624 180C276.474 180.76 277.124 181.91 275.624 182Z" fill="#E4E6E2"/>
<path d="M276.624 180C276.594 179.31 276.934 178.97 277.624 179C277.654 179.69 277.314 180.03 276.624 180Z" fill="#E4E6E2"/>
<path d="M148.124 220.01C148.594 220.34 148.594 220.67 148.124 221C147.654 220.67 147.654 220.34 148.124 220.01Z" fill="#E4E6E2"/>
<path d="M277.624 175C277.134 175.04 276.694 174.94 276.834 174.34C276.874 174.18 277.354 174.11 277.624 174V175Z" fill="#E4E6E2"/>
<path d="M277.624 113C277.134 113.04 276.694 112.94 276.834 112.34C276.874 112.18 277.354 112.11 277.624 112V113Z" fill="#E4E6E2"/>
<path d="M131.484 238.01C131.924 241.88 130.094 245.33 129.484 249.01C126.434 255.66 123.554 262.39 121.574 269.44C121.024 271.39 119.194 272.8 119.484 275.01V275.6C119.484 276.2 119.454 276.79 119.304 277.38C119.154 277.77 118.909 278.273 118.804 278.52C118.544 279.13 118.444 279.79 118.234 280.42C117.704 284.1 116.514 287.49 114.054 290.35C113.824 290.6 113.564 290.82 113.394 291.1C107.894 300.48 105.994 301.33 95.3039 299.19C91.8539 298.76 92.4039 301.42 91.9539 303.42C91.2439 306.6 93.5039 309.91 91.4739 313C90.5239 313.5 90.5239 314.86 90.5239 315.77C90.4539 329.18 90.4739 342.59 90.4739 356C89.4839 356 87.6539 355.95 86.4739 355C85.0439 353.9 84.8039 352.35 84.8339 350.7C86.4639 339.62 84.9639 328.55 84.7139 317.47C84.6939 316.65 84.4039 315.82 84.4939 315C85.9339 301.74 83.3439 288.47 84.4839 275.24C85.7439 260.67 85.3439 246.05 86.1239 231.47C86.7539 229.68 86.9139 227.61 88.8739 226.66C91.0839 226.31 91.6839 228 92.5539 229.31C93.9739 232.8 93.5039 236.49 93.5139 240.11C93.5539 249.22 93.5739 258.33 93.4939 266.98C95.8739 260.12 98.5939 252.89 101.174 245.96C99.7839 240.04 93.6639 236.8 94.0539 230.53C94.5339 227.17 96.9339 226.81 99.5839 227.15C105.954 227.95 112.274 229.23 118.464 230.84C122.004 231.76 125.714 231.49 129.124 232.82C131.024 233.56 133.654 233.77 132.484 237C132.144 237.32 131.844 237.69 131.484 238V238.01Z" fill="#121211"/>
<path d="M90.484 315C89.484 309.5 90.484 296.5 90.484 296.5C90.484 296.5 93.984 296 95.624 297C93.754 299.87 92.784 302.87 94.324 306.29C97.394 307.74 100.264 307.65 103.244 305.93C105.804 304.45 108.494 303.18 110.994 301.59C113.394 300.07 115.574 298.44 116.174 295.35C116.394 294.21 116.664 292.58 118.624 293.01C118.784 293.01 118.974 292.96 118.984 293C119.904 295.72 120.014 298.41 118.624 301C116.674 303.55 116.484 303.514 111.484 306.5C105.624 310 107.984 308.5 105.624 310C103.114 312.49 99.664 312.85 96.554 313.98C94.784 314.62 92.234 314.83 90.484 315Z" fill="#534034"/>
<path d="M69.624 241V242.55C68.144 242.79 67.224 243.89 66.094 245.04H63.014C62.344 246.07 62.734 247.07 62.614 248C60.994 248.2 62.134 246.21 60.914 245.98C59.614 245.83 59.184 247.17 58.274 247.82C57.214 247.3 56.174 246.48 54.894 247.22C52.124 248.83 49.114 247.69 46.224 247.96C44.544 248.12 43.404 246.81 41.964 246.05C41.114 247.52 39.464 247.63 38.034 248.29C36.464 249.02 35.444 249.45 34.204 248.09C31.094 248.54 28.294 246.37 25.184 247.01C22.204 247.62 19.574 245.48 16.614 246C16.294 244.85 15.634 244.1 14.354 243.98C13.864 243.93 13.494 243.6 13.614 243C11.744 241 11.834 239 13.614 237C14.924 236.91 14.414 238.1 14.964 238.96C17.494 238.15 18.994 241.2 21.614 241C22.794 239.88 24.394 239.61 25.804 239.68C37.404 240.26 49.014 239.51 60.614 240C62.514 239.91 64.0039 239.23 64.8239 237.34C65.1339 236.63 66.0039 237.13 66.6139 237V241.49C68.1539 243.11 68.5639 240.77 69.6139 241H69.624Z" fill="#426D92"/>
<path d="M11.624 271C12.034 269.33 13.974 266.42 15.624 265C16.634 264.96 17.164 265.84 17.454 266.44C17.794 267.14 17.864 267.96 18.594 268.43C16.804 270.42 17.964 272.81 17.624 274.99C15.764 274.14 14.544 271.61 11.624 273.54V270.99V271Z" fill="#1B2328"/>
<path d="M87.6239 231V230C86.3839 227.48 83.2739 228.7 81.6239 227C81.4339 226.17 82.4339 226.07 82.5139 225.36C78.6939 224.34 75.0139 222.49 70.7439 222.91C69.4939 223.03 67.9639 222.4 66.8739 221.66C64.6139 220.13 62.0839 221.74 59.8339 220.73C57.7139 219.77 55.5539 219.1 53.1539 218.89C51.3539 218.73 50.3039 220.49 48.6139 220C47.0839 220.44 45.8739 219.61 44.6139 219C42.2939 218.05 44.4639 217.11 44.6839 215.72C44.3439 214.45 41.5639 213.83 42.6639 211.82C42.3639 210.5 40.4239 211.62 40.6139 210C41.3939 209.91 42.3539 210.39 42.9139 208.7C44.1839 210.5 45.8939 211.1 47.5039 211.98C49.3139 211.29 51.0239 210.11 53.1539 211.91C54.3639 212.94 56.2439 213.19 57.8539 213.73C58.4439 213.93 59.3239 214.23 59.6939 213.96C62.0939 212.27 64.7239 213.34 67.0739 212.98L69.1339 215.04C75.0439 214.48 80.9139 216.97 87.2239 215.8L89.9739 219.2C94.4439 216.14 98.6539 220.86 102.974 218.56L104.524 221.25C108.354 220.27 111.274 222.74 114.594 222.04C117.854 221.36 120.794 224.22 123.894 222.8C125.074 223.98 126.014 224.92 126.954 225.87C131.254 226.58 135.594 227.15 139.604 229.02C141.024 230.38 140.204 232.71 142.024 234.06C143.414 235.09 144.904 236.26 145.604 238.02C145.494 238.3 145.414 238.8 145.264 238.82C140.874 239.47 136.714 238.39 132.604 237.02V235.15C129.104 235.44 125.894 233.47 122.274 233.99C120.274 234.27 118.514 233.56 117.094 232C113.754 232.11 110.394 232.24 107.374 230.31C106.344 229.65 105.134 230.03 104.014 230.04C101.164 230.04 98.6039 228.91 95.8339 228.31C95.2939 229.06 95.7339 230.07 95.6039 231.02C93.9039 232.15 93.0639 229.86 91.6039 230.02C89.6639 229.81 91.2739 228.05 90.5639 227.58C90.1039 226.81 89.5539 227.09 89.1239 227.02C87.5739 227.97 89.9139 230.37 87.5939 231.02L87.6239 231Z" fill="#48271B"/>
<path d="M38.624 221C38.774 219.31 37.944 217.35 39.964 216.18C42.474 217.1 41.394 219.28 41.624 221C42.624 223.73 41.984 226.55 42.074 229.32C42.124 230.9 41.474 231.94 39.624 231C38.194 227.78 37.654 224.46 38.624 221Z" fill="#DADCDD"/>
<path d="M38.624 221C38.094 224.42 40.154 227.58 39.624 231C38.844 230.88 38.654 231.64 38.134 231.97C37.124 231.13 37.844 229.98 37.624 229C37.624 226.74 37.624 224.49 37.624 222.23C37.624 221.55 37.704 220.93 38.624 221Z" fill="#98A2A6"/>
<path d="M39.624 231H41.344C41.984 229.37 41.514 227.59 41.604 225.88C41.694 224.26 41.624 222.63 41.624 221C42.554 220.93 42.624 221.55 42.624 222.23C42.624 224.82 42.624 227.41 42.624 230V231.58C41.534 231.89 40.354 232.85 39.624 231Z" fill="#98A2A6"/>
<path d="M44.624 219C44.514 218.39 45.034 217.89 45.344 218.05C46.464 218.63 48.094 218.43 48.624 220C48.444 221.04 47.654 221.52 46.794 222.05C45.304 221.6 44.394 220.72 44.624 219Z" fill="#BEB9B7"/>
<path d="M55.6239 203C57.2439 200.88 59.6739 198.96 60.2839 196.57C60.9739 193.88 62.5339 191.82 63.7639 189.61C64.7939 187.77 66.4639 186.13 67.8239 184.38C68.3439 183.71 68.4939 183 68.8239 182.31C70.1839 179.49 71.7806 177.387 73.6139 176C76.3339 174.62 77.1039 176.68 78.0239 178.49C78.5639 181.09 75.9239 181.54 74.8839 183.07C74.5339 185.07 75.9239 186.08 77.1539 187.18C82.4939 193.62 90.1039 195.43 97.7039 197.27C99.4739 197.7 101.264 198.06 103.024 198.5C108.604 200.68 114.224 202.48 120.254 200.29C123.414 201.43 123.524 205 125.604 207.01C125.184 210.01 126.034 212.84 126.804 215.67C126.854 215.84 127.324 215.9 127.604 216.01C127.954 217.83 130.254 218.19 130.604 220.01C130.964 220.32 131.264 220.69 131.604 221.01C131.954 221.33 132.224 221.73 132.604 222.01C132.714 222.64 132.204 223.14 131.834 222.97C127.114 220.8 121.664 221.37 117.014 219.01C112.164 219.29 107.744 216.73 102.874 216.96C100.674 217.06 98.6339 215.41 96.3039 216.01C94.4739 214.06 91.8039 215.06 89.5639 214.26C87.5239 213.53 85.0939 212.26 82.5839 213.01C79.3639 211.31 75.4539 212.1 72.2639 210.22C71.7639 209.92 70.9939 209.98 70.3639 210.03C65.9839 210.37 62.0839 208.1 57.8339 207.74C56.4239 206.06 54.3139 207.78 52.7839 206.69C53.2639 205.11 55.2839 204.72 55.6139 203.02L55.6239 203Z" fill="#11110F"/>
<path d="M60.6239 240C59.6439 240.45 53.4139 242 52.5139 242C44.8939 242 37.2739 241.97 29.6639 242.02C26.9339 242.04 24.4439 240.28 21.6339 241C21.8339 240.17 20.8139 240.08 20.7539 239.36C23.4639 238.42 26.6139 238.75 29.1939 237.02C29.4239 236.87 29.8439 237 30.1839 237H51.1739C54.1039 238.72 58.0339 237.25 60.6339 240H60.6239Z" fill="#0D1923"/>
<path d="M121.624 111C121.724 110.39 121.364 109.69 121.914 109.16C123.694 108.5 124.014 110.33 125.034 110.9C126.154 111.02 127.514 110.76 128.324 111.31C132.824 114.39 138.734 114.84 142.624 119.01C145.134 126.13 141.694 132.72 140.674 139.51C140.184 142.78 138.574 145.81 137.414 148.92C136.574 151.18 135.304 153.1 132.644 153.51C131.974 153.61 131.284 153.76 130.874 154.32C124.534 163.07 114.194 162.18 105.374 164.94C104.884 165 104.394 165.01 103.894 165.01C101.354 165.01 98.3039 166.04 97.1139 162.65C95.8339 159 98.6439 157.21 101.074 155.57C105.484 152.61 109.594 149.38 112.384 144.76C115.944 141.1 119.994 137.75 120.444 132.52C119.704 129.42 115.654 128.56 116.614 125.03C117.644 125.17 118.534 124.96 119.134 124.01C121.104 120.92 122.484 117.58 123.614 114.6C123.614 112.65 121.684 112.44 121.614 111.02L121.624 111Z" fill="#9C2222"/>
<path d="M93.6239 112C93.6239 114.32 93.8039 116.66 93.5839 118.97C93.2486 122.584 94.6453 126.045 94.7664 129.603C94.7933 130.396 94.757 131.194 94.6239 132C94.9639 132.32 95.1639 132.7 95.2339 133.16C95.2039 133.87 95.0039 134.52 94.6439 135.13C94.3739 135.53 94.0439 135.87 93.6639 136.16C91.9639 137.1 90.4539 137.11 89.3139 135.29C89.241 135.015 89.2404 134.759 89.3139 134.522C89.3715 134.337 89.4745 134.163 89.6239 134C91.4739 125.81 90.2839 117.5 90.6539 109.25C90.6939 108.45 89.9739 107.16 91.6239 107C92.1239 108.73 93.7939 110 93.6239 112Z" fill="#272627"/>
<path d="M93.6239 112C93.6239 114.32 93.8039 116.66 93.5839 118.97C93.2486 122.584 94.6453 126.045 94.7664 129.603L95.2339 108.5L93.4839 98.5L88.9839 93L89.3139 134.522C89.3715 134.337 89.4745 134.163 89.6239 134C91.4739 125.81 90.2839 117.5 90.6539 109.25C90.6939 108.45 89.9739 107.16 91.6239 107C92.1239 108.73 93.7939 110 93.6239 112Z" fill="#272627"/>
<path d="M105.624 151C103.964 150.83 104.664 149.53 104.654 148.73C104.604 139.15 104.624 129.57 104.624 120C105.224 120.12 105.884 119.74 106.434 120.3C107.334 121.22 108.374 122.95 109.154 122.84C111.214 122.55 109.984 125.35 111.624 125C112.644 125.06 113.454 125.58 114.294 126.1C121.234 130.4 121.714 133.11 116.874 140.86C116.614 141.27 116.304 141.65 115.954 141.99C115.774 142.14 115.584 142.3 115.404 142.45C115.054 142.76 114.704 143.08 114.374 143.4C114.204 143.55 114.024 143.71 113.854 143.86C111.274 146.42 110.214 150.74 105.634 151H105.624Z" fill="#E2E0DD"/>
<path d="M115.624 141C117.617 137.333 118.591 134.14 118.544 131.42C116.584 128.91 112.934 128.22 111.624 125V123.17C113.564 123.58 114.754 125.2 116.624 125C117.234 126.33 118.654 126.91 119.434 128.18C120.254 129.51 121.704 130.46 122.994 131.68C120.754 136.98 119.004 142.23 113.624 145C112.984 144.33 113.074 143.67 113.624 143C113.964 142.67 114.294 142.34 114.624 142C114.974 141.68 115.274 141.31 115.624 141V141Z" fill="#6E2D2B"/>
<path d="M118.984 293L118.484 297.5C118.484 297.5 115.594 301.05 113.794 302.13C110.914 303.86 108.394 306.42 104.894 306.98C102.924 307.29 102.464 309.55 100.314 310.11C99.1139 310.48 98.5739 310.75 96.9839 311C95.5339 311.23 94.3539 311 92.4839 311C92.4439 309.1 91.6439 305.17 91.6239 303.24C91.6039 301.27 91.6239 299.3 91.6239 297.33C93.0139 296.67 94.3539 297.18 95.6239 297C96.6939 297.18 97.3839 298.16 98.7039 298.06C101.504 297.85 104.334 298 107.124 298C110.014 295.49 109.694 290.71 113.624 289C115.754 289.24 117.744 289.68 118.624 292L118.984 293Z" fill="#7C5337"/>
<path d="M104.624 163C106.794 163.36 108.574 162.08 110.534 161.57C114.954 160.42 119.374 159.26 124.264 158.87C125.994 156.72 128.864 155.18 130.034 152.05H133.774C135.124 151.65 134.214 150 135.424 149.7C135.524 145.53 138.324 142.19 139.024 138.18C139.114 137.67 139.644 137.15 139.644 136.45C139.604 132.93 140.644 129.63 141.544 126.26C142.044 124.39 141.634 122.29 141.634 120.29C141.634 119.61 141.634 118.92 142.634 119H144.634C144.984 120.82 147.284 121.18 147.634 123C150.314 127.43 148.554 132.04 148.004 136.52C147.544 140.29 145.784 143.78 144.704 147.42C144.244 148.97 143.334 150.49 144.614 152.54C150.614 152.71 156.374 150.57 162.244 149.21C164.694 148.64 167.054 147.95 169.514 149.01C170.904 149.99 171.324 151.68 172.354 152.92C172.614 153.72 172.594 154.52 172.304 155.31C170.964 157.76 168.544 158.34 166.104 159.01C160.164 160.63 154.094 161.65 148.144 163.2C136.424 166.24 130.124 173.81 129.034 185.81C126.394 191.6 125.714 191.97 119.794 190.83C117.474 188.88 118.064 186.32 118.494 183.89C119.094 180.44 120.494 177.23 121.824 173.99C122.484 172.4 123.224 170.54 122.164 168.63C120.194 167.23 118.094 167.8 116.014 168.4C110.424 170.01 104.734 171.26 99.174 173C97.314 173.58 95.424 174.56 93.384 173.51C91.884 172.4 91.244 170.9 91.294 169.06C92.074 165.44 94.794 164.4 97.984 164.49C100.394 164.56 102.534 163.98 104.634 162.98L104.624 163Z" fill="#1B0B09"/>
<path d="M169.624 150C168.134 150 166.634 150 165.144 150C164.574 151.14 163.074 150.77 162.364 151.72C162.214 151.92 161.794 151.97 161.494 151.99C154.564 152.39 148.084 156.06 140.914 154.81C139.744 152.66 142.464 150.98 141.624 148.87C143.514 146.82 143.074 143.84 144.514 141.61C145.804 139.6 145.174 136.98 146.624 135.02C145.924 130.93 147.624 127.03 147.624 123C148.604 122.96 148.964 123.83 149.444 124.38C150.094 125.12 150.844 124.99 151.624 125C155.074 126.82 158.634 128.47 161.204 131.58C162.634 137.32 166.574 141.66 169.584 146.52C170.134 147.67 170.454 148.83 169.624 150V150Z" fill="#972423"/>
<path d="M160.624 132C160.084 130.05 158.474 131.44 157.494 131.02C156.154 130.77 155.774 129.35 154.454 128.88C152.954 128.34 151.304 127.2 151.624 125V124C152.944 122.87 153.004 121.01 154.264 119.45C160.124 116.16 165.214 118.94 170.064 122.29C173.054 124.35 176.144 126.6 174.904 131.1C170.194 132.26 165.634 135.81 160.614 132H160.624Z" fill="#4D281D"/>
<path d="M174.624 131C174.624 130.67 174.764 130.22 174.604 130.02C172.594 127.49 171.304 124.15 167.934 123.07C166.174 122.51 165.524 120.95 164.184 120.13H154.894C154.514 122.13 154.504 124.32 151.624 124C151.624 122.52 151.794 121 151.574 119.55C151.364 118.12 152.094 117.12 152.624 116C154.184 114.23 156.484 114.6 158.444 113.98C168.554 116.43 176.984 121.2 181.844 130.91C182.224 136.6 181.324 138.01 176.354 139.57C175.864 139.4 175.474 139.1 175.164 138.69C174.784 138.07 174.554 137.39 174.394 136.69C174.174 134.79 172.744 132.82 174.634 131.01L174.624 131Z" fill="#2B1E12"/>
<path d="M211.624 165C210.884 163.2 210.044 164.06 209.224 164.9C207.494 164.3 207.934 162.01 205.624 161.08H201.104C200.644 160.21 199.584 160.01 199.624 158.99C202.344 157.06 205.434 158.38 208.324 158C214.324 158.71 220.254 157.2 226.234 157.49C229.154 157.48 232.084 157.51 235.004 157.47C235.774 157.44 236.494 157.25 237.184 156.92C238.234 156.72 239.654 155.7 239.624 157.99C239.654 158.95 239.284 160.05 240.594 160.99C236.194 160.99 231.794 161 227.394 160.99C224.484 160.98 221.924 161.71 219.494 163.5C217.544 164.93 215.064 165.58 212.624 165.99C212.044 165.9 211.704 165.58 211.624 164.99V165Z" fill="#A1B3B8"/>
<path d="M158.624 115C158.694 115.9 158.094 116 157.414 116C155.814 116 154.224 116 152.624 116C153.094 114.71 151.714 114.03 151.624 112.92C153.444 108.78 157.314 106.78 160.764 104.45C164.794 101.72 173.634 102.73 177.254 106.2C178.614 107.5 180.204 108.61 180.924 110.65C181.434 112.09 183.684 112.35 184.344 114.13C184.594 114.8 184.494 115.39 184.624 116.01C185.724 120.22 184.914 124.52 185.094 128.77C185.164 130.46 184.124 131.51 182.294 131.51C180.534 130.86 180.784 129.31 180.674 127.92C181.234 123.52 180.394 119.31 178.914 115.19C176.944 106.93 165.464 102.21 156.934 111.7C156.694 113.18 158.674 113.59 158.624 115.01V115Z" fill="#AEAD70"/>
<path fill-rule="evenodd" clip-rule="evenodd" d="M110.132 124.801C110.846 125.317 111.304 125.67 111.304 125.67C111.304 125.67 115.414 126.8 117.574 126.26C124.054 122.74 126.364 116.1 123.034 110.58C121.634 108.77 117.624 106.99 117.624 106.99C117.624 106.99 114.314 104.53 112.724 103.31C110.234 101.39 107.564 99.31 106.234 96.13C104.154 91.16 102.114 86.18 100.634 80.99C100.463 80.202 99.8194 79.9458 99.1897 79.695C98.5328 79.4333 97.8906 79.1775 97.814 78.33C97.0908 75.6731 97.5704 73.0822 98.0541 70.4693C98.4935 68.0962 98.9361 65.705 98.484 63.23C96.9375 62.3213 95.9531 60.8477 94.9873 59.4021C94.1358 58.1275 93.2988 56.8747 92.104 56.05C91.1295 55.9085 90.7541 56.3291 90.4099 56.7147C90.3161 56.8197 90.2246 56.9222 90.124 57.01C89.6737 57.4145 89.2526 57.8539 88.9939 58.1238C88.9136 58.2076 88.849 58.275 88.804 58.32C88.7346 58.8475 88.7109 59.3316 88.6896 59.7686C88.6494 60.5909 88.6174 61.2464 88.304 61.71C87.234 63.29 87.224 64.65 88.274 66.16C88.7864 66.9009 88.708 67.7066 88.6295 68.5135C88.5808 69.0136 88.5321 69.5141 88.624 70C91.5451 72.7798 90.879 76.0924 90.2151 79.3939C90.1744 79.596 90.1338 79.7981 90.094 80C90.094 80.0199 89.9572 80.0134 89.8184 80.0067C89.7483 80.0034 89.6777 80 89.624 80L89.6276 80.1178C89.6736 81.6292 89.7174 83.0642 89.6882 84.5C89.6882 84.5 89.2174 90.9196 89.624 95C90.162 100.4 90.4029 103.69 92.914 108.5C95.609 113.663 98.5656 115.706 102.984 119.5C105.62 121.764 110.132 124.801 110.132 124.801Z" fill="#EEAD63"/>
<path d="M208.624 159H199.624C198.954 159 198.124 159.26 197.654 158.96C195.084 157.28 192.564 158.01 190.174 158.98C189.444 158.57 189.684 158.01 189.604 157.56C189.874 157.37 190.124 157.03 190.374 157.03C196.704 157 203.034 157.04 209.364 156.99C211.424 156.97 213.514 157.4 215.494 156.07C216.494 155.39 217.524 156.63 218.534 157.01C219.644 156.92 220.334 155.54 221.614 156.01C222.294 156.72 223.914 157.27 222.064 158.45C217.574 158.51 213.094 158.74 208.614 159.01L208.624 159Z" fill="#2F3F44"/>
<path d="M222.624 158C222.294 157.33 221.954 156.67 221.624 156H240.964C241.724 156.71 242.984 157.13 242.524 158.59C241.164 160.21 240.674 157.78 239.614 158C239.684 157.06 239.044 156.94 238.374 157.02C237.874 157.08 237.504 157.39 237.614 158C237.264 158.31 236.924 158.65 236.614 159H226.614C225.474 157.88 223.754 159.1 222.614 158H222.624Z" fill="#1D3034"/>
<path d="M211.624 165C212.314 164.97 212.654 165.31 212.624 166V176.5C212.294 177.17 211.984 177 210.984 177C210.484 177 210.254 176.59 209.584 176C209.414 175.36 209.234 172.9 209.484 172.5C209.484 169 209.824 168.55 209.584 166.45C210.404 166.01 210.604 164.95 211.624 165Z" fill="#5F727E"/>
<path d="M119.624 190C121.434 190 123.234 190 125.044 190C126.144 189.2 126.874 188.26 126.654 186.75C126.554 186.06 126.274 185.01 127.624 185C130.654 187.11 128.694 191.02 130.794 193.98C137.694 192.29 143.584 188.89 148.804 184.21C155.384 178.31 159.034 178.79 163.784 186.18C165.244 188.45 167.114 190.24 169.564 191.47C170.914 192.15 173.014 192.61 171.624 194.99V195.99H162.034C159.764 192.9 156.564 190.99 151.644 190.05C151.534 190.05 150.774 191.89 149.394 190.84C144.804 195.25 141.824 197.13 134.604 199.96C132.994 200.59 132.384 202.29 130.894 202.99C130.104 203.25 128.804 202.35 128.624 203.99C125.584 205.11 125.064 202.76 124.274 200.82C123.414 198.7 124.144 196.22 122.634 193.71C120.674 196 122.614 199.13 120.624 200.99H119.154C118.424 201.36 118.794 202.18 118.424 202.69C118.134 202.79 117.844 202.97 117.544 202.97C115.714 203 113.834 203.26 112.074 202.92C108.884 202.3 105.774 201.32 102.634 200.46C102.594 200.45 102.634 200.15 102.634 199.98C105.974 196.01 110.594 199.6 114.484 198.08C116.204 194.44 112.594 189.02 118.174 186.72C119.884 187.26 118.554 189.16 119.634 189.99L119.624 190Z" fill="#752324"/>
<path d="M120.624 201C120.094 199.86 119.384 198.86 119.574 197.42C119.854 195.38 119.764 193.3 118.114 191.2H125.564C125.864 195.53 124.914 199.98 127.134 204C127.634 204 128.134 204 128.624 204C128.394 205.89 126.734 204.52 125.954 205.17C125.324 205.69 125.744 206.39 125.624 207H122.944C122.724 204.85 120.464 203.45 120.624 201V201Z" fill="#8C817D"/>
<path d="M171.624 195V193.5C170.844 192.53 170.714 193.86 170.134 193.92C166.244 193.19 164.294 189.81 161.614 187.52C161.844 185.28 160.684 183.78 159.394 182.15H152.944C151.474 183.36 151.224 186.06 149.204 186.79C147.004 187.58 146.064 189.57 144.354 190.72C143.484 191.31 142.424 191.76 141.394 191.94C140.564 192.09 139.954 192.36 139.244 192.81C136.514 194.55 133.584 195.92 130.014 196.48L128.474 193.64L127.634 194.45V184.99C126.944 178.75 129.974 173.8 133.214 168.93C135.354 165.71 139.124 164.83 142.254 163.16C143.454 162.52 145.094 162.06 146.554 161.61C148.624 160.97 150.564 160.11 152.834 159.89C156.374 159.55 160.054 159 163.274 157.61C165.384 156.7 167.864 158.02 169.594 156.03C170.054 155.5 170.934 155.33 171.624 155C174.514 157.21 175.174 158.32 176.654 162.68C177.064 163.88 177.084 165.42 178.624 166C179.214 166.54 179.004 167.48 179.624 168C179.134 169.27 180.484 169.94 180.624 171C180.984 171.3 181.254 171.71 181.624 172C181.224 173.83 182.074 175.52 183.034 176.74C184.424 178.52 184.144 180.83 185.554 182.58C186.404 183.63 185.154 184.9 184.634 186C181.914 188.41 179.294 190.9 176.294 193.03C174.784 194.1 172.864 193.64 171.634 195H171.624Z" fill="#9E2322"/>
<path d="M209.384 174H212.011C212.339 174.33 212.457 174.66 212.339 175.005C212.234 175.335 212.089 177 211.984 177H212.011H209.384V174Z" fill="#342F25"/>
<path d="M131.624 238C131.594 237.31 131.934 236.97 132.624 237C132.654 237.69 132.314 238.03 131.624 238Z" fill="#48271B"/>
<path d="M132.624 222C131.934 222.03 131.594 221.69 131.624 221C132.314 220.97 132.654 221.31 132.624 222Z" fill="#5A3D2F"/>
<path d="M131.624 221C130.934 221.03 130.594 220.69 130.624 220C131.314 219.97 131.654 220.31 131.624 221Z" fill="#5A3D2F"/>
<path d="M89.624 134V135C90.874 136.5 90.194 138.09 89.944 139.72C89.614 141.81 89.154 144.02 91.474 145.86C95.454 142.84 92.394 138.44 93.634 135C94.254 134.47 94.004 133.52 94.634 133V132C95.134 132 95.624 132 96.124 132C97.274 133.77 97.844 135.67 97.644 137.82C97.314 141.32 98.194 144.87 96.774 148.38C96.394 149.31 95.974 150.67 95.504 151.29C93.694 153.68 93.474 156.24 93.624 158.99C93.484 159.13 93.344 159.26 93.204 159.4C92.824 159.52 92.434 159.52 92.054 159.4C91.914 159.26 91.774 159.13 91.634 158.99C92.034 155.01 89.034 153 86.874 150.73C86.224 146.38 85.594 142.19 84.894 137.49C85.194 136.93 86.064 135.89 85.624 134.49C86.454 133.67 87.274 132.85 88.094 132.03C89.144 132.24 88.024 134.19 89.634 133.98L89.624 134Z" fill="#BAC9CD"/>
<path d="M92.6239 169C92.6239 169.79 92.4539 170.61 93.2939 171.19C93.9639 171.65 93.5039 172.4 93.6239 173C94.2139 175.13 92.7539 175.85 91.2139 176.57C86.8939 178.59 82.4039 179.61 77.6239 179C77.1339 179 76.6339 179 76.1439 179C75.1039 178.32 75.9839 177.15 75.4339 176.29C74.9439 175.7 74.2339 176.12 73.6239 176C73.5039 175.17 74.2739 174.58 74.6739 174.53C76.4839 174.28 76.4939 171.82 78.3739 171.72C78.7739 171.7 79.1339 171.1 79.5439 171.04C80.3439 170.93 81.1839 171.01 82.0039 171.01C82.9939 170.49 83.4039 169.22 84.6239 169.01C87.2939 167.46 89.9539 165.21 92.6239 169.01V169Z" fill="#84827C"/>
<path d="M92.6239 169C91.8039 169.14 91.6339 168.27 90.8239 167.9C89.0939 169.45 86.8139 168.92 84.6239 169C84.6239 168.2 84.3739 167.15 85.3139 166.86C87.5439 166.16 88.5839 163.91 90.6239 163C91.9039 162.37 92.1039 161.01 92.7339 159.93C93.0239 159.61 93.3139 159.3 93.6239 159C94.4339 158.83 94.5939 159.75 95.1939 159.94C97.9539 157.03 101.134 154.63 104.554 152.53C105.034 152.23 105.754 151.85 105.624 151.01C108.244 149.13 110.614 147.03 112.114 144.08C112.354 143.6 112.784 142.89 113.624 143.01V145.01C113.624 145.82 113.694 146.55 112.944 147.23C109.134 150.68 106.044 154.94 101.114 157.13C99.6939 157.76 98.6839 159.32 97.6539 160.29C97.4239 162.02 99.2239 162.57 99.0739 163.97C101.064 164.41 102.634 162.48 104.624 163.01C104.624 163.17 104.674 163.46 104.624 163.48C100.844 165.07 97.0039 166.45 92.7339 167.36C92.3339 167.7 92.7439 168.4 92.6239 169.01V169Z" fill="#86363C"/>
<path d="M93.624 160C93.584 161.51 94.064 163.21 91.974 163.88C91.594 163.64 91.404 162.87 90.624 163C90.624 162.06 90.624 161.12 90.624 160.18C90.624 159.5 90.754 158.94 91.624 159C92.124 159.66 93.134 159.32 93.624 160Z" fill="#411F21"/>
<path d="M118.624 187C116.004 189.08 116.004 192.13 116.984 194.61C117.714 196.46 117.184 198.02 117.634 199.4C115.904 201.99 113.234 201.45 111.644 200.83C108.594 199.65 105.614 200.3 102.624 200C97.4039 199.88 92.6039 197.92 87.6839 196.51C86.0739 196.05 84.2039 195.92 83.1639 194.14C82.9739 193.82 81.9339 194.01 81.0439 193.95C79.4539 191.96 76.9739 190.52 75.6339 188C74.8439 186.75 73.8839 185.56 74.0839 183.99C78.5939 178.5 114.034 166 122.824 167.13C124.774 174.35 119.014 180.22 118.644 187.01L118.624 187Z" fill="#9B2021"/>
<path d="M118.624 187C118.194 183.73 120.524 180.76 119.614 177.8C122.184 174.35 123.954 171.13 121.174 166.96C116.694 167.66 112.154 168.68 107.834 170.38C104.924 171.53 101.894 172.19 98.904 172.88C97.314 173.25 95.874 173.81 94.614 174.61C91.144 176.81 87.854 179.07 83.434 179.15C82.224 179.17 80.864 180.29 79.594 179.93C77.934 181.61 76.424 183.14 74.494 185.09C74.274 185.83 76.154 186.6 75.634 188C73.164 187.04 73.054 184.75 72.554 182.81C73.684 180.59 76.444 180.87 77.634 179C80.604 177.36 83.784 176.7 87.014 177.03C88.354 175.92 89.614 175.01 91.294 175C92.634 175 93.284 174.17 93.634 173C97.624 172.39 101.264 170.58 105.214 169.69C109.194 168.79 113.184 167.45 117.134 166.24C119.304 165.57 122.334 164.91 124.634 167.44C124.714 170.85 123.904 173.98 122.174 177.17C120.654 179.96 120.054 183.3 119.664 186.54C119.524 187.68 119.644 188.85 119.644 190.01C117.714 189.54 119.024 187.99 118.644 187.01L118.624 187Z" fill="#6B241E"/>
<path d="M114.624 142C114.654 142.69 114.314 143.03 113.624 143C113.594 142.31 113.934 141.97 114.624 142Z" fill="#86363C"/>
<path d="M115.624 141C115.654 141.69 115.314 142.03 114.624 142C114.594 141.31 114.934 140.97 115.624 141Z" fill="#86363C"/>
<path d="M93.6239 135C93.5139 136.36 94.7939 135.74 95.6239 136.48C95.4639 140.6 96.4239 145.15 93.2039 148.98H90.0839C89.8239 147.5 88.7139 146.57 87.6539 145.54V138.57C88.2839 137.43 90.1439 136.87 89.6139 134.99L91.6139 136.07L93.6139 134.99L93.6239 135Z" fill="#8AA5AC"/>
<path d="M94.624 133C94.474 133.76 95.124 134.91 93.624 135C93.774 134.24 93.124 133.09 94.624 133Z" fill="#8AA5AC"/>
<path d="M137.624 160V161C137.264 161.3 136.974 161.69 136.624 162C135.954 164.2 133.794 164.7 132.024 165.93H127.994C127.594 165.19 126.574 164.99 126.624 164C127.104 163.53 127.584 163.05 128.194 162.74C129.924 162.5 131.324 161.61 132.594 160.47C132.944 159.98 133.284 159.49 133.594 158.97C133.794 158.59 134.044 158.26 134.344 157.95C135.124 157.39 135.894 157.24 136.634 158C137.244 158.53 137.014 159.48 137.634 160H137.624Z" fill="#B7B9B5"/>
<path d="M136.624 158C135.864 158.15 134.714 157.5 134.624 159C132.744 159.99 130.904 161.05 128.794 161.51C127.804 161.39 127.274 160.61 126.624 160C127.684 157.9 129.714 156.7 131.084 155H133.964C134.904 155.78 136.084 156.58 136.634 158H136.624Z" fill="#898885"/>
<path d="M126.624 160C127.384 160.15 128.534 159.5 128.624 161C129.484 162 129.414 163 128.624 164H126.624V160V160Z" fill="#C7CAC6"/>
<path d="M137.624 160C136.124 159.91 136.774 158.76 136.624 158C138.124 158.09 137.474 159.24 137.624 160Z" fill="#898885"/>
<path d="M136.624 162C136.594 161.31 136.934 160.97 137.624 161C137.654 161.69 137.314 162.03 136.624 162Z" fill="#898885"/>
<path d="M175.624 138C173.524 141.18 169.934 143.2 168.624 147C165.974 146.27 165.244 143.62 164.114 141.76C162.294 138.76 160.544 135.7 158.524 133.12C158.934 131.56 159.914 132.14 160.624 132C162.264 132 163.944 132.21 165.534 131.94C166.994 131.69 168.404 130.99 169.764 130.33C171.584 129.45 173.094 130.14 174.624 131V133.44C174.984 134.18 175.774 133.86 176.314 134.17C176.914 135.05 176.504 136.05 176.624 136.99C176.264 137.3 175.934 137.63 175.624 137.99V138Z" fill="#E3AC68"/>
<path d="M181.624 131H180.624C179.074 130.74 179.624 128.86 178.404 128.2C177.274 127.6 176.984 126.12 176.214 125.2C173.644 122.14 170.654 119.49 166.614 118.5C163.734 117.79 161.294 116.14 158.624 114.99C157.224 113.72 155.344 114.1 153.534 113.87C157.664 106.35 163.884 103.91 172.494 105.28C175.544 106.55 177.784 109.88 180.594 112.53C180.844 112.76 180.624 113.49 180.624 113.99C177.564 115.01 176.194 112.43 174.394 110.95C169.914 107.28 167.314 107.11 160.954 111.01C169.734 115.21 178.854 118.46 182.634 127.99C182.494 129.05 181.144 129.72 181.634 130.99L181.624 131Z" fill="#DCC05C"/>
<path d="M175.624 138C175.594 137.31 175.934 136.97 176.624 137C176.654 137.69 176.314 138.03 175.624 138Z" fill="#9CA697"/>
<path d="M222.624 158C223.564 158 224.504 158 225.444 158C226.124 158 226.684 158.13 226.624 159C223.984 159 221.334 158.91 218.694 159.03C217.154 159.1 215.664 158.68 214.064 159.86C212.394 161.1 210.554 158.82 208.624 158.99C208.624 157.65 209.644 158.01 210.364 158C214.454 157.97 218.534 157.99 222.624 157.99V158Z" fill="#7CA1B4"/>
<path d="M236.624 159C236.594 158.31 236.934 157.97 237.624 158C237.654 158.69 237.314 159.03 236.624 159Z" fill="#7CA1B4"/>
<path d="M182.624 128C180.044 126.47 178.104 124.2 176.224 121.99C173.104 118.33 169.004 116.55 164.694 115.01C163.124 114.44 158.354 111.87 157.374 110.83C159.304 109.04 161.094 107.07 164.014 107.04C164.954 107.03 165.484 106.2 166.104 106.12C169.374 105.66 172.404 106.04 174.904 108.71C176.674 110.6 178.244 112.75 180.624 114.01C181.664 116.61 182.884 119.13 182.654 122.08C182.494 124.04 182.624 126.03 182.624 128.01V128Z" fill="#EEBD19"/>
<path d="M93.624 160C92.864 159.85 91.714 160.5 91.624 159H93.624V160Z" fill="#8CA3AC"/>
<path d="M128.624 164V161L132.044 156.97C132.984 157.63 133.404 158.82 134.624 159C135.314 160 135.314 161 134.624 162C132.634 162.7 131.004 164.47 128.624 164Z" fill="#181A17"/>
<path d="M134.624 162V159C135.994 160.01 135.994 160.99 134.624 162Z" fill="#898885"/>
</svg>
