<svg width="25" height="23" viewBox="0 0 25 23" fill="none" xmlns="http://www.w3.org/2000/svg">
<path d="M20.4428 1.31906C20.3444 1.29937 20.2066 0.984373 20.1278 0.629999C20.0294 0.216562 20.0688 0 20.2066 0C20.3247 0 20.4625 0.137812 20.5216 0.295312C20.6003 0.511874 20.7578 0.551249 21.1713 0.452812C21.6241 0.334687 21.6831 0.374063 21.565 0.649687C21.4469 0.905624 21.5059 0.984374 21.8013 0.984374C22.0375 0.984374 22.195 0.846561 22.195 0.629999C22.2147 0.334687 22.2344 0.334686 22.4903 0.689061C22.6675 0.905623 22.7463 1.24031 22.6872 1.4175C22.6084 1.69312 22.7069 1.77187 23.0809 1.77187C23.3566 1.77187 23.5731 1.85062 23.5731 1.96875C23.5731 2.08687 23.7109 2.30343 23.8684 2.46093C24.0259 2.61843 24.2622 2.75625 24.3606 2.75625C24.4591 2.75625 24.5969 2.95312 24.6559 3.18937C24.715 3.44531 24.7544 3.76031 24.7544 3.87843C24.7544 4.01624 24.6559 4.09499 24.5575 4.03593C24.4591 3.97687 24.2622 4.23281 24.1637 4.56749C24.0456 4.92187 23.9669 5.41405 23.9669 5.6503C23.9669 5.90624 23.8684 6.10311 23.77 6.10311C23.6716 6.10311 23.1991 6.33936 22.7463 6.63468C21.9784 7.10718 21.7816 7.14655 20.7184 7.02843C20.0097 6.94968 19.2222 6.71343 18.7497 6.41811C18.3166 6.16218 17.785 5.8078 17.1747 5.3353L17.5684 5.0203C17.785 4.8628 18.2575 4.58718 18.6119 4.42968C18.9466 4.27218 19.2813 3.95718 19.3403 3.74062C19.3994 3.52406 19.3994 3.26812 19.3403 3.14999C19.2813 3.03187 19.3403 2.95312 19.4388 2.95312C19.5372 2.95312 19.6553 3.05156 19.6947 3.18937C19.7144 3.30749 19.8522 3.36656 19.99 3.28781C20.1672 3.18937 20.1672 2.9925 20.0294 2.50031C19.9113 2.16562 19.8325 1.81125 19.8325 1.71281C19.8325 1.63406 20.0097 1.61437 20.2263 1.67343C20.4428 1.7325 20.62 1.69312 20.62 1.575C20.62 1.45687 20.5413 1.35843 20.4428 1.31906Z" fill="#475636"/>
<path d="M0.499413 5.61093C0.6766 5.05968 1.01129 4.37062 1.22785 4.07531C1.50347 3.66187 1.64129 3.58312 1.75941 3.77999C1.85785 3.95718 2.35003 4.03593 3.31472 4.03593C4.08253 4.03593 4.7519 4.09499 4.79128 4.17374C4.83065 4.27218 5.04721 4.33124 5.26378 4.33124C5.55909 4.33124 5.61816 4.42968 5.53941 4.66593C5.44097 4.94155 5.50003 4.98093 5.73628 4.8628C5.91347 4.78405 6.05127 4.80374 6.05127 4.92187C6.05127 5.03999 6.30721 5.09905 6.6419 5.05968C6.9569 5.03999 7.2719 5.13843 7.33096 5.25655C7.39002 5.39437 7.33097 5.70937 7.21284 5.94562C7.03566 6.2803 7.03566 6.41811 7.21284 6.4378C7.37034 6.47718 7.37034 6.63468 7.21284 7.02843C7.1144 7.34343 6.54346 8.0128 5.97253 8.56405C5.40159 9.09561 4.83065 9.72561 4.71253 9.94217C4.5944 10.1587 4.43691 10.2769 4.33847 10.1784C4.25972 10.0997 4.29909 9.92248 4.43691 9.78467C4.57472 9.66655 4.67316 9.41061 4.67316 9.25311C4.67316 9.05623 4.49597 9.13498 4.18097 9.48936C3.90535 9.80436 3.61003 10.0406 3.49191 10.0406C3.39347 10.0406 3.35409 9.88311 3.41316 9.68623C3.47222 9.48936 3.33441 9.56811 3.05879 9.88311C2.80285 10.1784 2.42879 10.4344 2.21222 10.4344C1.85785 10.454 1.85785 10.4147 2.11379 10.139C2.33035 9.92248 2.33035 9.82405 2.17285 9.84373C2.01535 9.84373 1.95628 9.70592 2.03503 9.48936C2.13347 9.21373 2.07441 9.17436 1.68066 9.2728C1.44441 9.35155 1.09004 9.4303 0.932537 9.46967C0.715975 9.52873 0.656914 9.41061 0.696289 9.09561C0.715977 8.78061 0.637224 8.66249 0.341912 8.66249C-0.0124628 8.66249 -0.0518367 8.56405 0.0466006 7.61905C0.0859755 7.0678 0.302538 6.14249 0.499413 5.61093Z" fill="#475636"/>
<path d="M11.4653 17.2068C11.8197 16.9706 11.8197 16.9115 11.5638 16.6359C11.3078 16.38 11.3472 16.3406 11.8591 16.3406C12.2725 16.3406 12.7056 16.5572 13.2372 17.0493C13.9853 17.7187 14.0247 17.7975 13.8869 18.5653C13.8081 19.0181 13.4931 19.7268 13.1978 20.16C12.8435 20.6325 12.2135 21.1247 11.5244 21.479C10.8944 21.794 10.0281 22.0893 9.59502 22.1484C9.04377 22.2075 8.70908 22.1484 8.51221 21.9515C8.35471 21.794 8.23659 21.5381 8.27596 21.4003C8.29565 21.2822 8.15784 21.1837 7.98065 21.2034C7.72472 21.2428 7.64596 21.164 7.72471 20.8687C7.78377 20.6522 7.70503 20.2781 7.5869 20.0615C7.39003 19.7268 7.39003 19.6284 7.5869 19.5693C7.72472 19.53 7.76409 19.3528 7.70503 19.1362C7.62628 18.959 7.70502 18.6047 7.84284 18.3487C8.0594 17.9943 8.23658 17.9156 8.61065 18.014C8.88627 18.0731 9.26034 18.0731 9.45721 18.014C9.67377 17.955 9.75253 17.7975 9.67378 17.5612C9.57534 17.2659 9.65408 17.2462 10.3235 17.3447C10.8156 17.4431 11.2094 17.384 11.4653 17.2068Z" fill="#475636"/>
</svg>
