<svg width="543" height="543" viewBox="0 0 543 543" fill="none" xmlns="http://www.w3.org/2000/svg">
<path fill-rule="evenodd" clip-rule="evenodd" d="M170.529 20.2729C181.748 15.7774 202.84 9.48361 217.649 6.33673C232.458 3.18984 253.998 0.0429475 266.115 0.0429475C277.783 -0.406608 302.913 2.74028 321.761 6.33673C341.058 10.3827 372.022 20.7225 390.421 29.7136C416.001 41.8516 433.054 54.8887 460.428 82.3116C487.802 109.734 500.817 126.818 512.933 152.442C521.908 170.874 532.23 200.545 536.269 217.628C539.859 234.711 543 258.537 543 270.675C543 282.364 539.859 307.539 535.82 326.42C532.23 345.751 521.459 376.771 512.484 395.202C500.816 419.478 486.456 438.36 462.223 463.085C437.093 488.26 419.142 501.747 392.665 515.234C372.92 525.124 344.648 535.913 329.839 539.06C312.786 542.656 285.412 544.005 255.793 542.207C223.034 540.858 199.698 536.812 179.504 529.619C163.349 523.775 135.526 508.94 117.126 496.802C98.2785 483.765 74.0455 462.186 61.9289 446.901C49.8124 432.066 34.1058 407.79 26.9256 392.954C19.7455 378.119 10.7702 353.843 6.7314 339.008C3.14132 324.172 0 294.052 0 271.574C0 249.097 3.14132 218.976 7.18016 204.141C11.219 189.306 21.0917 164.131 29.6182 147.947C37.6959 131.763 54.3 107.487 66.4165 94.0001C78.5331 80.5134 102.317 59.8338 119.37 48.5949C136.423 37.3561 159.31 24.3189 170.529 20.2729ZM102.454 85.3752C103.35 85.3752 108.276 87.6125 113.203 89.8499C119.921 93.4297 121.712 97.0095 119.473 106.854C118.129 114.461 119.473 122.515 123.952 127.885C129.774 135.94 129.774 139.519 123.056 160.998C119.025 173.975 112.307 186.057 108.724 187.399C105.141 188.742 98.4231 192.769 93.9444 196.796C89.4657 200.823 85.8827 208.43 86.3306 214.248C86.3306 221.855 78.7168 228.567 52.7403 244.228C19.15 264.365 19.15 264.365 19.15 253.178C19.15 246.913 21.3894 231.252 24.0766 218.722C26.7638 205.746 35.7212 180.687 43.7829 163.683C51.8446 146.679 67.9679 121.621 79.6125 109.091C91.2572 96.1146 101.558 85.3752 102.454 85.3752ZM226.066 164.578C223.379 154.286 218.004 149.811 197.85 141.757C175.905 133.255 171.426 132.807 159.781 138.177C149.928 142.652 145.002 149.364 139.627 167.263C133.357 189.189 133.357 191.426 140.971 203.956C145.449 211.563 153.063 218.722 157.99 220.96C162.916 222.75 170.978 221.855 175.905 219.617C180.831 217.38 189.341 215.143 195.163 215.143C201.881 215.143 208.599 209.325 217.109 195.901C226.514 181.582 228.753 173.975 226.066 164.578ZM186.206 36.1531C190.237 36.1531 209.943 44.2076 229.649 54.052C256.521 67.4762 265.479 74.1883 265.479 80.9005C265.479 85.8227 267.718 90.7449 269.957 92.0873C272.645 93.4297 271.301 101.037 265.927 111.329C260.104 123.41 253.834 128.78 243.533 131.465C233.68 133.702 222.931 131.912 205.016 124.753C186.654 117.146 179.04 111.329 175.905 102.379C173.217 95.2196 166.947 87.6126 161.573 84.9277C155.751 82.2429 146.793 81.3479 141.419 82.6903C134.701 84.4802 129.326 83.1378 126.639 78.6631C124.4 75.0833 123.056 69.7136 124.4 67.4762C125.743 65.2389 138.284 57.1844 152.615 49.5773C166.499 42.4177 181.727 36.6006 186.206 36.1531ZM348.335 148.021C316.088 115.803 303.996 107.749 298.173 107.749C291.455 107.749 285.633 112.224 281.154 121.173C277.571 128.78 275.332 137.73 276.676 141.309C278.467 146.679 286.977 148.021 313.849 148.021H348.335ZM312.505 165.92C337.138 165.92 342.512 167.263 346.095 174.87C349.678 181.582 347.439 191.874 337.138 217.38C329.972 235.726 321.015 250.94 318.327 250.94C315.192 250.94 304.891 234.384 295.486 214.248C286.081 193.664 279.363 174.422 280.706 171.738C282.498 167.71 293.247 165.92 312.505 165.92ZM318.327 24.9663C299.069 21.3865 276.676 18.7016 269.062 19.1491C261 19.5966 246.668 20.4915 237.711 21.3865C228.306 22.2814 220.692 24.0713 220.692 26.3087C220.692 28.0986 231.888 34.8107 245.325 41.9702C265.479 51.8147 273.54 53.6046 289.216 51.3672C306.235 48.6824 308.922 49.5773 318.327 61.2116C325.493 70.1611 327.733 77.3207 325.941 85.3752C323.702 94.3247 326.837 100.142 340.273 113.566C351.022 123.858 361.771 130.123 368.489 130.123C376.998 130.123 385.508 122.963 402.975 102.379C415.963 86.2701 424.473 72.3985 422.233 69.7136C420.442 67.4762 403.871 57.6318 385.956 48.6824C367.145 38.8379 337.586 28.9935 318.327 24.9663ZM296.83 67.4762C301.756 67.4762 306.683 70.1611 307.579 73.2934C308.026 75.9782 308.026 81.3479 307.579 84.4802C306.683 87.1651 301.756 89.8499 296.83 89.8499C291.903 89.8499 286.977 87.6125 285.633 85.3752C284.289 83.1378 284.289 77.7681 285.633 74.1883C286.529 70.6086 291.903 67.4762 296.83 67.4762ZM462.094 106.854C452.241 94.7721 443.283 85.3752 441.492 85.3752C439.252 85.8227 428.504 98.3519 416.411 113.566C398.048 137.73 395.809 142.204 400.736 149.364C403.871 154.286 429.847 165.92 458.959 176.212C506.881 193.216 511.36 194.111 509.12 186.057C507.329 181.135 500.163 165.92 492.997 152.496C485.383 139.072 471.499 118.488 462.094 106.854ZM450.449 193.216C477.769 203.508 501.059 212.458 501.954 213.353C502.402 214.248 485.383 235.279 463.885 259.89C441.94 284.501 422.681 304.637 419.994 304.637C417.755 304.637 400.288 299.715 381.925 293.45C354.157 284.501 347.439 280.474 343.856 270.182C339.825 259.89 341.169 251.835 352.813 223.197C363.562 195.901 368.489 188.294 375.207 188.294C380.134 188.742 386.852 185.609 390.435 181.582C393.57 178.002 397.153 174.87 398.048 174.87C398.778 174.87 414.658 180.509 435.526 187.92C440.282 189.609 445.296 191.389 450.449 193.216ZM521.213 248.256L516.286 224.987L480.457 267.049C460.75 290.318 445.075 310.007 445.97 311.349C446.418 312.244 462.094 318.061 480.457 324.326C498.819 330.591 514.495 335.513 515.39 334.618C515.838 334.171 518.526 319.404 521.213 302.4C524.796 279.579 524.796 264.812 521.213 248.256ZM425.816 327.906L467.916 341.33C490.758 348.49 510.016 354.754 510.464 355.202C510.912 355.649 505.537 368.178 498.371 382.945C491.205 397.712 477.321 418.743 449.106 450.066L423.129 420.98C400.736 396.817 396.705 389.657 398.048 378.023C398.944 370.416 405.662 356.097 412.828 346.252L425.816 327.906ZM437.909 461.7C390.882 414.268 381.029 407.556 371.624 407.556C362.667 407.556 357.74 411.136 351.918 421.875C346.991 430.377 344.304 444.249 344.752 455.436C345.648 470.202 343.856 475.572 337.138 480.047C330.42 484.074 328.181 490.339 328.181 502.421C328.181 517.635 329.076 518.977 338.034 516.74C343.408 515.397 362.219 507.343 379.686 498.841C396.705 490.786 416.859 478.704 424.473 472.887L437.909 461.7ZM368.041 367.284C372.968 367.284 377.894 369.521 378.79 372.653C379.686 375.786 379.686 380.708 378.79 383.84C377.894 386.972 373.415 389.657 368.489 389.657C363.562 389.657 358.188 387.42 357.292 385.182C355.949 382.498 355.949 377.575 356.844 373.996C358.188 369.968 363.115 367.284 368.041 367.284ZM409.693 320.299C359.532 304.637 343.856 300.163 343.408 300.163C342.512 300.163 341.617 301.952 341.617 304.637C341.617 306.875 346.095 318.061 351.47 329.248C359.979 345.805 364.01 349.385 373.863 349.385C382.373 349.385 389.987 344.91 398.048 334.618L409.693 320.299ZM318.327 269.734C322.358 270.629 326.389 275.551 326.837 281.369C327.733 288.528 325.941 291.213 319.223 291.213C314.297 291.213 309.37 288.976 308.026 286.738C306.683 284.053 307.131 279.131 308.474 275.104C309.818 271.524 314.297 268.839 318.327 269.734ZM279.363 222.75C266.374 195.006 261.448 187.847 253.834 188.294C247.564 188.294 239.95 195.006 231.888 207.535C222.483 221.855 220.692 228.567 223.827 235.279C226.962 241.096 239.502 247.808 260.104 254.52C278.019 259.89 293.247 263.022 294.142 261.232C295.038 258.995 288.32 241.991 279.363 222.75ZM256.521 272.419C276.676 279.131 286.977 285.396 290.112 292.108C292.351 297.925 301.308 305.532 309.818 309.112C320.119 313.587 328.181 322.536 335.347 336.855C342.512 351.174 344.304 358.334 340.273 358.334C337.586 358.334 322.358 352.964 307.131 346.252C285.185 336.408 278.915 331.486 277.123 322.536C276.228 315.824 270.405 309.112 262.792 305.532C252.938 300.61 247.116 300.61 238.607 304.19C232.784 306.875 225.17 313.587 221.587 319.404C217.109 327.011 209.047 330.591 183.518 334.618C165.604 337.75 148.585 339.988 145.449 339.988C142.762 340.435 150.376 325.221 162.916 306.875C179.488 281.816 187.997 273.314 195.163 273.314C200.538 273.762 207.703 270.629 211.286 266.602C214.869 262.575 219.796 260.337 222.483 261.232C222.96 261.391 223.833 261.691 225.036 262.105C230.607 264.02 243.261 268.371 256.521 272.419ZM340.273 387.867C337.138 381.603 324.598 373.101 310.266 367.284C302.102 364.126 294.248 360.814 288.616 358.439C284.669 356.775 281.814 355.57 280.706 355.202C278.019 353.859 275.332 353.859 274.884 355.649C274.436 356.992 282.498 374.443 292.351 394.132C305.787 420.98 312.505 429.93 319.223 429.93C324.598 429.93 331.316 423.665 337.138 414.268C344.752 400.844 345.2 396.817 340.273 387.867ZM318.775 447.829C325.046 447.829 328.181 450.812 328.181 456.778C328.181 461.7 325.046 467.07 321.015 468.86C317.432 470.65 312.057 469.755 308.922 467.07C305.787 463.938 304.891 458.568 306.683 454.541C308.474 450.961 313.849 447.829 318.775 447.829ZM273.988 397.264C264.135 378.47 253.834 362.809 250.251 362.809C247.116 362.809 229.201 394.579 209.943 433.062C190.684 471.992 176.8 505.105 179.04 506.895C180.831 508.685 194.715 513.16 209.495 516.74C224.275 520.767 252.938 523.899 273.093 523.899H310.266C309.818 494.814 306.683 487.206 298.173 479.152C287.872 469.307 286.529 465.28 288.768 450.066C291.007 434.852 288.32 426.35 273.988 397.264ZM255.178 321.641C258.761 323.431 261 328.801 260.104 333.723C259.209 339.093 255.178 342.672 249.803 342.672C244.429 342.672 240.398 339.093 239.502 333.723C238.607 328.801 240.398 323.431 243.085 321.641C245.772 320.299 251.147 320.299 255.178 321.641ZM226.514 350.28C225.618 347.147 223.379 344.91 221.587 344.91C219.796 345.357 216.213 346.252 213.974 347.147C211.286 348.042 195.163 350.727 178.144 353.412C151.72 357.887 145.002 360.571 137.836 370.863L129.326 383.393L164.708 484.074C213.974 384.735 227.41 353.412 226.514 350.28ZM152.168 237.964C159.333 240.201 166.052 246.466 167.395 251.835C169.634 259.442 164.708 270.629 149.48 294.345C132.909 320.299 126.639 327.011 117.682 327.011C111.411 327.011 102.006 330.143 96.1837 333.723C87.2263 339.988 83.6434 339.54 58.1147 330.591C42.8871 325.221 27.6596 318.956 24.5245 316.272C21.3894 313.587 18.7021 305.085 19.15 297.925C19.15 285.843 23.1808 282.264 54.5318 263.917C85.8827 245.571 92.1529 243.333 109.62 245.123C123.504 246.913 130.222 245.571 134.253 240.648C138.731 235.279 143.21 234.831 152.168 237.964ZM124.4 217.38C124.4 212.458 121.264 207.983 117.234 207.088C113.651 206.641 108.724 207.088 106.485 208.878C104.693 210.668 102.902 216.037 103.35 220.512C103.798 225.882 107.38 228.119 114.546 227.672C121.115 226.777 124.4 223.346 124.4 217.38ZM150.824 100.142C153.511 101.037 156.198 105.511 157.094 110.434C157.99 114.908 156.198 121.173 153.959 123.41C150.376 126.543 146.345 125.2 140.971 120.278C134.253 113.566 134.253 111.776 139.627 105.512C143.21 101.484 148.137 99.2469 150.824 100.142ZM263.239 159.208C263.239 153.391 259.656 149.811 253.386 148.916C244.877 147.574 243.085 149.364 244.429 157.866C244.877 165.025 248.012 168.158 254.282 168.158C260.254 168.158 263.239 165.175 263.239 159.208ZM29.8989 340.435C31.2425 340.435 43.7829 344.91 57.219 350.28C71.103 356.097 85.4348 365.046 88.5699 370.416C92.1529 376.233 99.3188 382.05 104.245 383.84C110.963 386.525 117.682 400.397 131.118 439.774C140.971 468.86 147.241 492.576 145.449 492.576C143.658 492.576 130.67 483.179 116.338 472.44C102.006 461.253 83.1955 442.459 73.7902 430.825C64.3849 419.19 51.3967 398.607 45.1265 385.182C38.4084 371.311 31.6904 356.097 29.8989 350.28C28.5553 344.91 28.1074 340.435 29.8989 340.435ZM124.4 356.097C124.4 351.174 121.264 346.7 117.234 345.805C113.651 344.91 108.724 345.805 106.485 347.595C104.245 349.385 102.902 354.307 103.35 358.782C103.798 364.599 106.933 366.836 114.099 365.941C120.966 365.344 124.4 362.063 124.4 356.097ZM373.863 148.021C378.342 148.021 382.821 151.154 384.164 154.734C385.508 158.313 383.269 163.683 379.686 165.92C376.103 168.158 369.833 169.5 366.25 168.158C362.667 166.815 359.084 163.236 358.636 160.103C358.188 156.523 359.532 152.496 361.771 151.154C364.01 149.364 369.385 148.021 373.863 148.021ZM205.016 244.228C205.016 238.411 201.433 234.831 194.715 233.936C186.654 232.594 184.862 234.384 185.758 242.886C186.654 249.598 189.789 253.178 196.059 253.178C202.03 253.178 205.016 250.195 205.016 244.228Z" fill="url(#paint0_linear_161_8)"/>
<defs>
<linearGradient id="paint0_linear_161_8" x1="-1.41181" y1="2.67462" x2="540.883" y2="544.01" gradientUnits="userSpaceOnUse">
<stop stop-color="#F2BB05"/>
<stop offset="1" stop-color="#FF7A00"/>
</linearGradient>
</defs>
</svg>
