<svg width="50" height="25" viewBox="0 0 50 25" fill="none" xmlns="http://www.w3.org/2000/svg">
<path d="M11.4288 23.9582H38.4432C44.6779 23.9582 49.8731 18.8548 49.8731 12.5005C49.8731 6.25078 44.7817 1.04181 38.4432 1.04181H11.4288C5.19519 1.04181 0 6.14629 0 12.5005C0 18.8548 5.09135 23.9582 11.4288 23.9582Z" fill="#00C2CB"/>
<path d="M24.9365 12.5005C24.9365 12.9093 24.9162 13.3181 24.8765 13.7259C24.8368 14.1327 24.7767 14.5374 24.6973 14.9391C24.6169 15.3408 24.5181 15.7375 24.4 16.129C24.2809 16.5206 24.1435 16.9061 23.9877 17.2834C23.8309 17.6618 23.6568 18.0321 23.4644 18.3932C23.272 18.7543 23.0623 19.1043 22.8352 19.4451C22.6082 19.7849 22.3649 20.1136 22.1063 20.4301C21.8467 20.7466 21.5728 21.0499 21.2847 21.339C20.9956 21.6291 20.6932 21.903 20.3776 22.1627C20.062 22.4224 19.7342 22.6659 19.3952 22.8941C19.0552 23.1213 18.706 23.3313 18.3456 23.524C17.9852 23.7168 17.6166 23.8923 17.2399 24.0485C16.8622 24.2057 16.4784 24.3437 16.0875 24.4624C15.6966 24.5811 15.3005 24.6805 14.9004 24.7596C14.5003 24.8397 14.0962 24.8996 13.6899 24.9402C13.2837 24.9807 12.8765 25 12.4683 25C12.06 25 11.6528 24.9807 11.2456 24.9402C10.8394 24.8996 10.4362 24.8397 10.0361 24.7596C9.63498 24.6805 9.23997 24.5811 8.84904 24.4624C8.4581 24.3437 8.07429 24.2057 7.69658 24.0485C7.3199 23.8923 6.95034 23.7168 6.59096 23.524C6.23057 23.3313 5.88035 23.1213 5.54134 22.8941C5.2013 22.6659 4.87349 22.4224 4.55788 22.1627C4.24228 21.903 3.94094 21.6291 3.65181 21.339C3.36267 21.0499 3.08881 20.7466 2.83023 20.4301C2.57062 20.1136 2.32832 19.7849 2.10129 19.4451C1.87426 19.1043 1.66454 18.7543 1.47212 18.3932C1.27971 18.0321 1.10562 17.6618 0.948838 17.2834C0.793074 16.9061 0.655635 16.5206 0.536521 16.129C0.418425 15.7375 0.318655 15.3408 0.239246 14.9391C0.159836 14.5374 0.0997703 14.1327 0.0600659 13.7259C0.0193433 13.3181 0 12.9093 0 12.5005C0 12.0907 0.0193433 11.6829 0.0600659 11.2751C0.0997703 10.8673 0.159836 10.4636 0.239246 10.0619C0.318655 9.66017 0.418425 9.26354 0.536521 8.87198C0.655635 8.48042 0.793074 8.09495 0.948838 7.71658C1.10562 7.3382 1.27971 6.96896 1.47212 6.60783C1.66454 6.2467 1.87426 5.89572 2.10129 5.55589C2.32832 5.21505 2.57062 4.8874 2.83023 4.57091C3.08881 4.25441 3.36267 3.95111 3.65181 3.662C3.94094 3.37188 4.24228 3.09698 4.55788 2.83729C4.87349 2.5776 5.2013 2.33414 5.54134 2.10692C5.88035 1.87969 6.23057 1.66971 6.59096 1.47596C6.95034 1.28322 7.3199 1.10874 7.69658 0.951512C8.07429 0.795293 8.4581 0.657334 8.84904 0.538649C9.23997 0.419964 9.63498 0.320552 10.0361 0.240414C10.4362 0.16129 10.8394 0.100426 11.2456 0.0608643C11.6528 0.0202881 12.06 0 12.4683 0C12.8765 0 13.2837 0.0202881 13.6899 0.0608643C14.0962 0.100426 14.5003 0.16129 14.9004 0.240414C15.3005 0.320552 15.6966 0.419964 16.0875 0.538649C16.4784 0.657334 16.8622 0.795293 17.2399 0.951512C17.6166 1.10874 17.9852 1.28322 18.3456 1.47596C18.706 1.66971 19.0552 1.87969 19.3952 2.10692C19.7342 2.33414 20.062 2.5776 20.3776 2.83729C20.6932 3.09698 20.9956 3.37188 21.2847 3.662C21.5728 3.95111 21.8467 4.25441 22.1063 4.57091C22.3649 4.8874 22.6082 5.21505 22.8352 5.55589C23.0623 5.89572 23.272 6.2467 23.4644 6.60783C23.6568 6.96896 23.8309 7.3382 23.9877 7.71658C24.1435 8.09495 24.2809 8.48042 24.399 8.87198C24.5181 9.26354 24.6169 9.66017 24.6973 10.0619C24.7767 10.4636 24.8368 10.8673 24.8765 11.2751C24.9162 11.6829 24.9365 12.0907 24.9365 12.5005Z" fill="#9AA7B1"/>
<path d="M24.9365 12.5005C24.9365 17.605 21.8192 22.0836 17.4558 23.9582H24.5212C27.3259 20.9383 29.0923 16.9791 29.0923 12.5005C29.0923 8.02091 27.3259 4.06271 24.5212 1.04181H17.4558C21.8192 2.91744 24.9365 7.39604 24.9365 12.5005Z" fill="#03989E"/>
<path d="M12.4683 2.08356C6.75386 2.08356 2.07788 6.77112 2.07788 12.5005C2.07788 13.7502 2.28557 14.8965 2.70094 15.9383L12.4683 12.5005L17.1432 3.22983C15.6894 2.50048 14.1308 2.08356 12.4683 2.08356ZM12.4683 22.9174C18.1827 22.9174 22.8586 18.2298 22.8586 12.5005C22.8586 11.2507 22.651 10.1045 22.2346 9.06266L12.4683 12.5005L7.79228 21.7711C9.2471 22.5005 10.8058 22.9174 12.4683 22.9174Z" fill="#D9D9D9"/>
</svg>
