<svg width="168" height="59" viewBox="0 0 168 59" fill="none" xmlns="http://www.w3.org/2000/svg">
<rect width="168" height="58" fill="#1D3E51"/>
<path d="M17.2273 47V12.0909H29.0227C31.75 12.0909 33.9886 12.5568 35.7386 13.4886C37.4886 14.4091 38.7841 15.6761 39.625 17.2898C40.4659 18.9034 40.8864 20.7386 40.8864 22.7955C40.8864 24.8523 40.4659 26.6761 39.625 28.267C38.7841 29.858 37.4943 31.108 35.7557 32.017C34.017 32.9148 31.7955 33.3636 29.0909 33.3636H19.5455V29.5455H28.9545C30.8182 29.5455 32.3182 29.2727 33.4545 28.7273C34.6023 28.1818 35.4318 27.4091 35.9432 26.4091C36.4659 25.3977 36.7273 24.1932 36.7273 22.7955C36.7273 21.3977 36.4659 20.1761 35.9432 19.1307C35.4205 18.0852 34.5852 17.2784 33.4375 16.7102C32.2898 16.1307 30.7727 15.8409 28.8864 15.8409H21.4545V47H17.2273ZM33.6591 31.3182L42.25 47H37.3409L28.8864 31.3182H33.6591ZM77.3849 29.5455C77.3849 33.2273 76.7202 36.4091 75.3906 39.0909C74.0611 41.7727 72.2372 43.8409 69.919 45.2955C67.6009 46.75 64.9531 47.4773 61.9759 47.4773C58.9986 47.4773 56.3509 46.75 54.0327 45.2955C51.7145 43.8409 49.8906 41.7727 48.5611 39.0909C47.2315 36.4091 46.5668 33.2273 46.5668 29.5455C46.5668 25.8636 47.2315 22.6818 48.5611 20C49.8906 17.3182 51.7145 15.25 54.0327 13.7955C56.3509 12.3409 58.9986 11.6136 61.9759 11.6136C64.9531 11.6136 67.6009 12.3409 69.919 13.7955C72.2372 15.25 74.0611 17.3182 75.3906 20C76.7202 22.6818 77.3849 25.8636 77.3849 29.5455ZM73.294 29.5455C73.294 26.5227 72.7884 23.9716 71.777 21.892C70.777 19.8125 69.419 18.2386 67.7031 17.1705C65.9986 16.1023 64.0895 15.5682 61.9759 15.5682C59.8622 15.5682 57.9474 16.1023 56.2315 17.1705C54.527 18.2386 53.169 19.8125 52.1577 21.892C51.1577 23.9716 50.6577 26.5227 50.6577 29.5455C50.6577 32.5682 51.1577 35.1193 52.1577 37.1989C53.169 39.2784 54.527 40.8523 56.2315 41.9205C57.9474 42.9886 59.8622 43.5227 61.9759 43.5227C64.0895 43.5227 65.9986 42.9886 67.7031 41.9205C69.419 40.8523 70.777 39.2784 71.777 37.1989C72.7884 35.1193 73.294 32.5682 73.294 29.5455ZM84.4929 47V12.0909H96.6974C99.1293 12.0909 101.135 12.5114 102.714 13.3523C104.294 14.1818 105.47 15.3011 106.243 16.7102C107.016 18.108 107.402 19.6591 107.402 21.3636C107.402 22.8636 107.135 24.1023 106.601 25.0795C106.078 26.0568 105.385 26.8295 104.521 27.3977C103.669 27.9659 102.743 28.3864 101.743 28.6591V29C102.811 29.0682 103.885 29.4432 104.964 30.125C106.044 30.8068 106.947 31.7841 107.675 33.0568C108.402 34.3295 108.766 35.8864 108.766 37.7273C108.766 39.4773 108.368 41.0511 107.572 42.4489C106.777 43.8466 105.521 44.9545 103.805 45.7727C102.089 46.5909 99.8565 47 97.1065 47H84.4929ZM88.7202 43.25H97.1065C99.8679 43.25 101.828 42.7159 102.987 41.6477C104.158 40.5682 104.743 39.2614 104.743 37.7273C104.743 36.5455 104.442 35.4545 103.839 34.4545C103.237 33.4432 102.379 32.6364 101.266 32.0341C100.152 31.4205 98.8338 31.1136 97.3111 31.1136H88.7202V43.25ZM88.7202 27.4318H96.5611C97.8338 27.4318 98.9815 27.1818 100.004 26.6818C101.038 26.1818 101.857 25.4773 102.459 24.5682C103.072 23.6591 103.379 22.5909 103.379 21.3636C103.379 19.8295 102.845 18.5284 101.777 17.4602C100.709 16.3807 99.0156 15.8409 96.6974 15.8409H88.7202V27.4318ZM115.712 47V12.0909H127.916C130.348 12.0909 132.354 12.5114 133.933 13.3523C135.513 14.1818 136.689 15.3011 137.462 16.7102C138.234 18.108 138.621 19.6591 138.621 21.3636C138.621 22.8636 138.354 24.1023 137.82 25.0795C137.297 26.0568 136.604 26.8295 135.74 27.3977C134.888 27.9659 133.962 28.3864 132.962 28.6591V29C134.03 29.0682 135.104 29.4432 136.183 30.125C137.263 30.8068 138.166 31.7841 138.893 33.0568C139.621 34.3295 139.984 35.8864 139.984 37.7273C139.984 39.4773 139.587 41.0511 138.791 42.4489C137.996 43.8466 136.74 44.9545 135.024 45.7727C133.308 46.5909 131.075 47 128.325 47H115.712ZM119.939 43.25H128.325C131.087 43.25 133.047 42.7159 134.206 41.6477C135.376 40.5682 135.962 39.2614 135.962 37.7273C135.962 36.5455 135.661 35.4545 135.058 34.4545C134.456 33.4432 133.598 32.6364 132.484 32.0341C131.371 31.4205 130.053 31.1136 128.53 31.1136H119.939V43.25ZM119.939 27.4318H127.78C129.053 27.4318 130.2 27.1818 131.223 26.6818C132.257 26.1818 133.075 25.4773 133.678 24.5682C134.291 23.6591 134.598 22.5909 134.598 21.3636C134.598 19.8295 134.064 18.5284 132.996 17.4602C131.928 16.3807 130.234 15.8409 127.916 15.8409H119.939V27.4318ZM151.158 12.0909V47H146.93V12.0909H151.158Z" fill="white"/>
</svg>
