<svg width="132" height="22" viewBox="0 0 132 22" fill="none" xmlns="http://www.w3.org/2000/svg">
<path d="M52.4343 0H132V22H52.4343V0Z" fill="#F5F5F5"/>
<path d="M1.20812 11.6874V15.5324H0V6.21136H3.002C4.04171 6.21136 4.83431 6.46782 5.38163 6.97889C5.92711 7.4918 6.20168 8.11911 6.20168 8.86081C6.20168 9.59881 6.00033 10.215 5.60129 10.7058C5.20041 11.1984 4.60001 11.5084 3.80009 11.6357L6.34812 15.5324H4.82516L2.4016 11.6874H1.20812ZM1.20812 7.19291V10.7206H3.002C3.66463 10.7206 4.15886 10.5656 4.48103 10.2556C4.80685 9.94567 4.9716 9.51394 4.9716 8.95675C4.9716 7.78147 4.31445 7.19291 3.002 7.19291H1.20812Z" fill="#F5F5F5"/>
<path d="M17.4295 13.5325C18.0775 12.859 18.4033 11.9716 18.4033 10.8682C18.4033 9.76677 18.0775 8.88116 17.4295 8.21142C16.7797 7.54353 15.9505 7.20773 14.94 7.20773C13.9333 7.20773 13.1041 7.54353 12.4506 8.21142C11.7953 8.88116 11.4694 9.76677 11.4694 10.8682C11.4694 11.9716 11.7953 12.859 12.4506 13.5325C13.1096 14.2022 13.9406 14.5361 14.9474 14.5361C15.9523 14.5361 16.7797 14.2022 17.4295 13.5325ZM14.9474 15.6284C13.6239 15.6284 12.5092 15.1782 11.6012 14.2778C10.6933 13.3775 10.2394 12.2391 10.2394 10.8609C10.2394 9.48448 10.6933 8.3498 11.6012 7.45866C12.5092 6.56936 13.6239 6.12286 14.9474 6.12286C16.2745 6.12286 17.3892 6.56936 18.2935 7.45866C19.1959 8.3498 19.6481 9.48633 19.6481 10.8682C19.6481 12.2465 19.1959 13.3849 18.2935 14.2852C17.3892 15.1819 16.2745 15.6284 14.9474 15.6284Z" fill="#F5F5F5"/>
<path d="M23.6458 6.21136H26.9553C27.8962 6.21136 28.6247 6.44384 29.1372 6.90509C29.6534 7.36819 29.9134 7.96413 29.9134 8.69106C29.9134 9.72981 29.3221 10.4143 28.1415 10.7427C28.7364 10.8424 29.2141 11.1117 29.5766 11.5545C29.9426 11.9936 30.1257 12.4992 30.1257 13.0748C30.1257 13.7833 29.8511 14.3719 29.3056 14.8387C28.7583 15.3018 28.0261 15.5324 27.1091 15.5324H23.6458V6.21136ZM24.8539 7.19291V10.263H26.8967C27.4569 10.263 27.8943 10.1283 28.2074 9.85711C28.524 9.58221 28.6833 9.20767 28.6833 8.73534C28.6833 8.26302 28.524 7.89033 28.2074 7.61358C27.8943 7.33313 27.4569 7.19291 26.8967 7.19291H24.8539ZM24.8539 14.5656H27.0432C27.6326 14.5656 28.0939 14.418 28.427 14.1228C28.7583 13.8276 28.9249 13.4217 28.9249 12.9051C28.9249 12.3885 28.7437 11.9826 28.3831 11.6874C28.0261 11.3922 27.5502 11.2446 26.9553 11.2446H24.8539V14.5656Z" fill="#F5F5F5"/>
<path d="M34.3023 6.21136H37.6118C38.5527 6.21136 39.2812 6.44384 39.7937 6.90509C40.3099 7.36819 40.5698 7.96413 40.5698 8.69106C40.5698 9.72981 39.9786 10.4143 38.7979 10.7427C39.3928 10.8424 39.8706 11.1117 40.233 11.5545C40.5991 11.9936 40.7822 12.4992 40.7822 13.0748C40.7822 13.7833 40.5076 14.3719 39.9621 14.8387C39.4148 15.3018 38.6826 15.5324 37.7655 15.5324H34.3023V6.21136ZM35.5104 7.19291V10.263H37.5532C38.1133 10.263 38.5508 10.1283 38.8638 9.85711C39.1805 9.58221 39.3398 9.20767 39.3398 8.73534C39.3398 8.26302 39.1805 7.89033 38.8638 7.61358C38.5508 7.33313 38.1133 7.19291 37.5532 7.19291H35.5104ZM35.5104 14.5656H37.6997C38.2891 14.5656 38.7503 14.418 39.0835 14.1228C39.4148 13.8276 39.5814 13.4217 39.5814 12.9051C39.5814 12.3885 39.4002 11.9826 39.0396 11.6874C38.6826 11.3922 38.2067 11.2446 37.6118 11.2446H35.5104V14.5656Z" fill="#F5F5F5"/>
<path d="M44.9588 15.5324V6.21136H46.1669V15.5324H44.9588Z" fill="#F5F5F5"/>
<path d="M60.2115 14.5877H61.9248C63.0853 14.5877 63.975 14.2667 64.59 13.6209C65.205 12.977 65.5126 12.0767 65.5126 10.9198C65.5126 9.76486 65.205 8.8645 64.59 8.21874C63.975 7.57483 63.0853 7.25195 61.9248 7.25195H60.2115V14.5877ZM61.9248 6.21136C63.4185 6.21136 64.5937 6.63572 65.454 7.48073C66.318 8.32206 66.75 9.46966 66.75 10.9198C66.75 12.3719 66.318 13.5029 65.454 14.3147C64.5937 15.1265 63.4185 15.5324 61.9248 15.5324H59.0034V6.21136H61.9248Z" fill="#1D3E51" fillOpacity="0"/>
<path d="M75.6709 6.21136V7.18553H71.9879V10.359H75.2755V11.311H71.9879V14.5656H75.6709V15.5324H70.7798V6.21136H75.6709Z" fill="#1D3E51" fillOpacity="0"/>
<path d="M80.9906 8.69851C80.9906 9.04353 81.0822 9.3295 81.2689 9.5546C81.4592 9.776 81.7009 9.94205 81.9937 10.0491C82.2866 10.1524 82.6124 10.2465 82.9749 10.3295C83.3355 10.4088 83.6943 10.4992 84.0512 10.6026C84.4118 10.7059 84.7395 10.8387 85.0323 11.0011C85.3289 11.1635 85.5705 11.407 85.7572 11.7317C85.9421 12.0527 86.0355 12.4513 86.0355 12.9273C86.0355 13.6505 85.7591 14.2834 85.2081 14.824C84.6553 15.3609 83.9121 15.6284 82.9749 15.6284C82.0377 15.6284 81.2725 15.4125 80.6831 14.9789C80.0974 14.5417 79.8045 13.9513 79.8045 13.2077H81.1005C81.1334 13.6265 81.3 13.966 81.5984 14.2262C81.8949 14.4882 82.3379 14.6173 82.9236 14.6173C83.513 14.6173 83.9816 14.466 84.3294 14.1598C84.6754 13.8553 84.8493 13.4992 84.8493 13.0896C84.8493 12.6819 84.7559 12.3701 84.5711 12.1524C84.3844 11.931 84.1427 11.7668 83.8462 11.6579C83.5533 11.5509 83.2257 11.4587 82.8651 11.3849C82.5081 11.3074 82.1493 11.2151 81.7887 11.1118C81.4263 11.0048 81.1005 10.8664 80.8076 10.6985C80.5147 10.5325 80.2731 10.2852 80.0827 9.9605C79.896 9.63209 79.8045 9.22618 79.8045 8.74279C79.8045 7.95681 80.0827 7.32397 80.6392 6.84611C81.1957 6.36456 81.9205 6.12286 82.8138 6.12286C83.7071 6.12286 84.4173 6.3332 84.9445 6.75017C85.4753 7.16345 85.7828 7.73725 85.867 8.46973H84.5125C84.4777 8.10626 84.3075 7.79445 84 7.53246C83.6924 7.27231 83.2769 7.14131 82.7552 7.14131C82.2372 7.14131 81.8125 7.27415 81.4812 7.53984C81.1535 7.80552 80.9906 8.19297 80.9906 8.69851Z" fill="#1D3E51" fillOpacity="0"/>
<path d="M90.3323 15.5324V6.21136H91.5405V15.5324H90.3323Z" fill="#1D3E51" fillOpacity="0"/>
<path d="M100.192 15.6136C98.9179 15.6136 97.827 15.1671 96.919 14.2705C96.0111 13.3756 95.5572 12.2391 95.5572 10.8609C95.5572 9.48449 96.0111 8.3498 96.919 7.45866C97.827 6.56936 98.9417 6.12286 100.265 6.12286C101.226 6.12286 102.083 6.35165 102.835 6.80921C103.586 7.26308 104.14 7.91991 104.497 8.77969H103.026C102.473 7.73172 101.554 7.20773 100.265 7.20773C99.2584 7.20773 98.4292 7.54353 97.7757 8.21142C97.1259 8.88117 96.8019 9.76677 96.8019 10.8682C96.8019 11.9716 97.1259 12.859 97.7757 13.5325C98.4292 14.2022 99.2419 14.5361 100.214 14.5361C101.19 14.5361 101.973 14.2594 102.564 13.7022C103.159 13.1468 103.505 12.3941 103.604 11.4439H99.7892V10.4771H104.885V11.4439C104.757 12.645 104.263 13.6413 103.399 14.4328C102.539 15.2206 101.47 15.6136 100.192 15.6136Z" fill="#1D3E51" fillOpacity="0"/>
<path d="M114.989 6.21136H116.205V15.5324H114.989L110.106 8.13756V15.5324H108.898V6.21136H110.106L114.989 13.6062V6.21136Z" fill="#1D3E51" fillOpacity="0"/>
<path d="M121.682 8.69851C121.682 9.04353 121.773 9.3295 121.96 9.5546C122.15 9.776 122.392 9.94205 122.685 10.0491C122.978 10.1524 123.304 10.2465 123.666 10.3295C124.027 10.4088 124.385 10.4992 124.742 10.6026C125.103 10.7059 125.431 10.8387 125.724 11.0011C126.02 11.1635 126.262 11.407 126.448 11.7317C126.633 12.0527 126.727 12.4513 126.727 12.9273C126.727 13.6505 126.45 14.2834 125.899 14.824C125.346 15.3609 124.603 15.6284 123.666 15.6284C122.729 15.6284 121.964 15.4125 121.374 14.9789C120.789 14.5417 120.496 13.9513 120.496 13.2077H121.792C121.825 13.6265 121.991 13.966 122.29 14.2262C122.586 14.4882 123.029 14.6173 123.615 14.6173C124.204 14.6173 124.673 14.466 125.021 14.1598C125.367 13.8553 125.541 13.4992 125.541 13.0896C125.541 12.6819 125.447 12.3701 125.262 12.1524C125.076 11.931 124.834 11.7668 124.537 11.6579C124.245 11.5509 123.917 11.4587 123.556 11.3849C123.199 11.3074 122.841 11.2151 122.48 11.1118C122.118 11.0048 121.792 10.8664 121.499 10.6985C121.206 10.5325 120.964 10.2852 120.774 9.9605C120.587 9.63209 120.496 9.22618 120.496 8.74279C120.496 7.95681 120.774 7.32397 121.33 6.84611C121.887 6.36456 122.612 6.12286 123.505 6.12286C124.398 6.12286 125.109 6.3332 125.636 6.75017C126.167 7.16345 126.474 7.73725 126.558 8.46973H125.204C125.169 8.10626 124.999 7.79445 124.691 7.53246C124.384 7.27231 123.968 7.14131 123.446 7.14131C122.928 7.14131 122.504 7.27415 122.172 7.53984C121.845 7.80552 121.682 8.19297 121.682 8.69851Z" fill="#1D3E51" fillOpacity="0"/>
</svg>
